<?xml version="1.0" encoding="utf-8"?>
<!-- Generator: Adobe Illustrator 14.0.0, SVG Export Plug-In . SVG Version: 6.00 Build 43363)  -->
<!DOCTYPE svg PUBLIC "-//W3C//DTD SVG 1.1//EN" "http://www.w3.org/Graphics/SVG/1.1/DTD/svg11.dtd">
<svg version="1.1" id="Capa_1" xmlns="http://www.w3.org/2000/svg" xmlns:xlink="http://www.w3.org/1999/xlink" x="0px" y="0px"
	 width="23.871px" height="5.899px" viewBox="-5.685 9.055 23.871 5.899" enable-background="new -5.685 9.055 23.871 5.899"
	 xml:space="preserve">
<path fill="#FFFFFF" d="M17.921,13.051c-0.176-0.172-0.385-0.302-0.617-0.385c-0.101-0.042-0.352-0.129-0.748-0.261
	c-0.559-0.201-0.697-0.306-0.697-0.553c0-0.296,0.293-0.513,0.691-0.513c0.373-0.012,0.724,0.193,0.894,0.528
	c0.11,0.186,0.203,0.383,0.284,0.582H17.9c-0.035-0.542-0.045-0.679-0.062-1.231h-0.147l-0.267,0.295
	c-0.223-0.265-0.559-0.409-0.904-0.392c-0.756,0-1.367,0.518-1.367,1.173c0,0.495,0.342,0.878,0.953,1.095l0.819,0.288
	c0.406,0.145,0.559,0.282,0.559,0.504c0,0.319-0.293,0.528-0.74,0.528c-0.493,0.008-0.943-0.271-1.16-0.712
	c-0.095-0.188-0.178-0.383-0.249-0.58h-0.18v1.421h0.156l0.353-0.407c0.263,0.336,0.669,0.527,1.094,0.516
	c0.803,0,1.429-0.531,1.429-1.216C18.182,13.479,18.087,13.237,17.921,13.051z M14.3,12.238c0-0.359,0-0.854,0.027-1.077
	c-0.223,0.037-0.447,0.053-0.669,0.047c-0.278,0-0.629,0-1.069,0.014v0.208h0.602v3.227h-0.639v0.219h2.332v-0.219H14.3V12.238z
	 M12.05,14.553c-0.11-0.006-0.201-0.091-0.219-0.201c-0.02-0.113-0.025-0.226-0.018-0.344c0.029-1.413,0.029-1.444,0.029-1.508
	c0.006-0.142,0.004-0.284-0.01-0.422c-0.023-0.178-0.091-0.348-0.197-0.494c-0.243-0.296-0.69-0.457-1.293-0.457
	c-0.945,0-1.634,0.383-1.634,0.903c-0.023,0.221,0.14,0.416,0.359,0.438l0,0h0.061c0.222,0.018,0.419-0.15,0.437-0.375
	c0-0.014,0.002-0.026,0-0.042c-0.006-0.199-0.089-0.387-0.232-0.528c0.244-0.117,0.511-0.178,0.783-0.174
	c0.347,0,0.534,0.087,0.602,0.271c0.05,0.203,0.069,0.408,0.062,0.617v0.454c-0.326,0.048-0.438,0.073-0.768,0.145
	c-0.379,0.066-0.744,0.203-1.074,0.408c-0.246,0.158-0.391,0.434-0.389,0.727c0,0.566,0.479,0.98,1.125,0.98
	c0.45,0.014,0.874-0.207,1.119-0.582c0.12,0.373,0.483,0.615,0.874,0.582c0.586,0,0.876-0.312,0.895-0.91h-0.197
	C12.344,14.377,12.247,14.553,12.05,14.553z M10.736,13.777c0,0.486-0.232,0.784-0.619,0.784c-0.334,0-0.527-0.257-0.527-0.713
	c0-0.452,0.139-0.671,0.438-0.789c0.225-0.093,0.462-0.156,0.706-0.186v0.903H10.736z M8.145,9.477
	C7.742,9.276,7.292,9.189,6.844,9.22c-1.178,0.015-1.363,0.015-1.85,0.015c-0.286,0-0.671,0-1.402-0.015v0.218h0.833v5.21H3.582
	v0.221h3.132v-0.221H5.742v-2.323c0.199,0.018,0.4,0.027,0.601,0.023c0.801,0,1.334-0.12,1.81-0.416
	c0.442-0.265,0.711-0.744,0.713-1.261C8.875,10.169,8.593,9.703,8.145,9.477z M6.071,12.156c-0.11,0-0.219-0.004-0.327-0.016V9.426
	c0.626,0,0.806,0.016,1.03,0.088c0.14,0.046,0.266,0.125,0.372,0.233c0.243,0.263,0.369,0.615,0.346,0.973
	C7.49,11.685,7.014,12.156,6.071,12.156z M1.4,10.434V9.658c-0.004-0.17,0.002-0.34,0.018-0.511
	c-0.17,0.029-0.344,0.045-0.516,0.049C0.584,9.21,0.228,9.218-0.166,9.218h-0.145v0.208H0.3v5.229h-0.621v0.219h2.314v-0.219H1.4
	V10.434z M-1.133,13.898c-0.147,0.256-0.371,0.452-0.644,0.568c-0.292,0.12-0.541,0.14-1.343,0.14H-3.51v-2.603
	c0.242-0.008,0.483,0,0.723,0.031c0.116,0.014,0.226,0.054,0.327,0.112c0.166,0.101,0.3,0.247,0.379,0.425
	c0.035,0.079,0.085,0.174,0.127,0.294h0.172c0-0.437-0.018-0.768-0.018-0.989c0-0.221,0-0.534,0.018-0.965h-0.18
	c-0.05,0.164-0.124,0.316-0.218,0.46c-0.062,0.087-0.141,0.164-0.232,0.219c-0.226,0.129-0.483,0.195-0.74,0.186h-0.342V9.442
	c0.657,0,0.833,0,1.127,0.023c0.29-0.006,0.57,0.093,0.791,0.282c0.184,0.189,0.34,0.404,0.462,0.638
	c0.106,0.197,0.199,0.4,0.278,0.609h0.188l-0.062-0.969l-0.06-0.806c-1.173,0.006-2.066,0.015-2.685,0.015
	c-0.617,0-1.11-0.007-2.229-0.015v0.218h0.843v5.21l-0.843-0.008v0.219c1.146,0,1.676-0.02,2.289-0.02c0.669,0,1.635,0,2.875,0.02
	c0.025-0.895,0.042-1.113,0.103-1.989h-0.207C-0.76,13.229-0.929,13.573-1.133,13.898z"/>
<path fill="#FFFFFF" d="M13.096,10.671l0.16,0.085l1.995-1.606V9.055h-1.094L13.096,10.671z"/>
</svg>
