<?xml version="1.0" encoding="utf-8"?>
<!-- Generator: Adobe Illustrator 14.0.0, SVG Export Plug-In . SVG Version: 6.00 Build 43363)  -->
<!DOCTYPE svg PUBLIC "-//W3C//DTD SVG 1.1//EN" "http://www.w3.org/Graphics/SVG/1.1/DTD/svg11.dtd">
<svg version="1.1" id="Capa_1" xmlns="http://www.w3.org/2000/svg" xmlns:xlink="http://www.w3.org/1999/xlink" x="0px" y="0px"
	 width="350px" height="85px" viewBox="0 0 350 85" enable-background="new 0 0 350 85" xml:space="preserve">
<path id="Shape" fill="#FFFFFF" d="M16.189,22.876c1.48,1.253,2.223,3.177,2.223,5.775c0,2.598-0.763,4.498-2.281,5.702
	c-1.521,1.203-3.841,1.806-6.962,1.806H6.358v5.866H1.646V20.994h7.461C12.349,20.994,14.71,21.62,16.189,22.876L16.189,22.876z
	 M12.731,31.148c0.563-0.633,0.847-1.555,0.847-2.769s-0.367-2.075-1.104-2.588c-0.735-0.512-1.877-0.768-3.428-0.768H6.358v7.072
	H9.53C11.1,32.097,12.168,31.779,12.731,31.148L12.731,31.148z M30.07,42.025V20.994h4.712v16.85h9.002v4.182L30.07,42.025
	L30.07,42.025z M70.244,42.025l-1.965-4.542h-8.85l-1.964,4.542h-5.015l9.123-21.031h4.561l9.123,21.033h-5.014V42.025z
	 M63.869,27.253l-2.658,6.107h5.285L63.869,27.253L63.869,27.253z M100.449,20.994h4.711v21.033h-4.711L90.39,28.846v13.18h-4.712
	V20.994h4.409l10.363,13.541L100.449,20.994L100.449,20.994z M199.693,38.581c2.316,0,4.209-0.913,5.681-2.738l3.02,3.099
	c-2.396,2.689-5.222,4.032-8.472,4.032c-3.253,0-5.931-1.022-8.035-3.068c-2.105-2.046-3.157-4.628-3.157-7.749
	c0-3.118,1.073-5.721,3.218-7.807c2.146-2.086,4.767-3.13,7.867-3.13c3.465,0,6.364,1.314,8.7,3.942l-2.93,3.31
	c-1.489-1.845-3.343-2.77-5.56-2.77c-1.771,0-3.286,0.577-4.545,1.731c-1.259,1.153-1.888,2.708-1.888,4.663
	c0,1.956,0.594,3.526,1.781,4.709C196.562,37.989,198.002,38.581,199.693,38.581L199.693,38.581z M220.083,21.702h4.711v21.031
	h-4.711V21.702z M243.553,37.303c0.783,0.973,1.842,1.458,3.171,1.458s2.381-0.485,3.156-1.458c0.773-0.974,1.164-2.303,1.164-3.987
	V21.702h4.711v11.764c0,3.049-0.846,5.392-2.537,7.025c-1.691,1.636-3.855,2.454-6.495,2.454c-2.637,0-4.806-0.823-6.508-2.469
	c-1.702-1.644-2.553-3.981-2.553-7.011V21.702h4.711v11.613C242.373,35,242.768,36.33,243.553,37.303L243.553,37.303z
	 M284.753,24.454c2.013,1.835,3.02,4.389,3.02,7.657c0,3.271-0.98,5.858-2.943,7.764s-4.958,2.858-8.987,2.858h-7.218V21.702h7.46
	C279.85,21.702,282.74,22.619,284.753,24.454L284.753,24.454z M281.294,36.956c1.158-1.082,1.738-2.657,1.738-4.724
	c0-2.065-0.58-3.656-1.738-4.77c-1.157-1.113-2.937-1.67-5.331-1.67h-2.629V38.58h2.991
	C278.479,38.581,280.137,38.04,281.294,36.956z M314.867,42.733l-1.962-4.543h-8.853l-1.963,4.543h-5.015l9.122-21.031h4.563
	l9.121,21.031H314.867L314.867,42.733z M308.496,27.959l-2.658,6.108h5.286L308.496,27.959L308.496,27.959z M346.433,24.454
	c2.015,1.835,3.021,4.389,3.021,7.657c0,3.271-0.981,5.858-2.944,7.764c-1.964,1.906-4.96,2.858-8.985,2.858h-7.222V21.702h7.461
	C341.53,21.702,344.419,22.619,346.433,24.454L346.433,24.454z M342.974,36.956c1.158-1.082,1.737-2.657,1.737-4.724
	c0-2.065-0.579-3.656-1.738-4.77c-1.155-1.113-2.934-1.67-5.331-1.67h-2.627V38.58h2.99
	C340.159,38.581,341.817,38.04,342.974,36.956L342.974,36.956z"/>
<g>
	<path id="Stroke-46_2_" fill="#FFFFFF" d="M177.173,30.957c0,5.156-1.336,10.142-3.824,14.604l-0.129,0.213l-0.209,0.315
		c-0.453,0.813-0.65,1.145-0.939,1.577l0.121-0.198l-19.676,34.488c-2.234,3.914-7.846,3.914-10.078,0l-19.676-34.488l0.121,0.197
		c-0.43-0.645-0.84-1.325-1.275-2.103c-2.49-4.462-3.826-9.445-3.824-14.605c0-16.516,13.293-29.9,29.693-29.9
		C163.876,1.056,177.173,14.445,177.173,30.957z"/>
	<g>
		<path fill="#E95941" d="M162.773,39.259l7.243,4.114c2.084-3.833,3.189-8.117,3.189-12.416c0-0.104-0.009-0.208-0.01-0.312
			l-4.179-2.374L162.773,39.259z"/>
		<path fill="#E95941" d="M133.376,22.56l6.242-10.987l-5.191-2.95c-3.794,2.262-6.963,5.476-9.184,9.316L133.376,22.56z"/>
		
			<rect x="138.354" y="15.983" transform="matrix(0.4938 -0.8696 0.8696 0.4938 54.3567 136.7917)" fill="#7CC2DE" width="12.644" height="11.447"/>
		<polygon fill="#64AE5C" points="149.656,54.908 139.794,49.307 134.101,59.332 134.78,60.522 143.616,65.543 		"/>
		
			<rect x="144.022" y="37.013" transform="matrix(0.8694 0.4941 -0.4941 0.8694 40.9861 -68.2997)" fill="#7CC2DE" width="11.34" height="12.737"/>
		
			<rect x="152.101" y="22.836" transform="matrix(0.8695 0.494 -0.494 0.8695 34.9985 -74.1312)" fill="#C52714" width="11.337" height="12.644"/>
		<polygon fill="#F0E247" points="160.956,42.458 146.81,67.357 153.96,71.419 168.151,46.546 		"/>
		<path fill="#E95941" d="M144.995,70.555l-2.241,3.945l3.132,5.49c0.174,0.306,0.404,0.54,0.682,0.698
			c0.66,0.375,1.871,0.405,2.502-0.698l3.069-5.379L144.995,70.555z"/>
		<polygon fill="#C52714" points="141.802,68.74 138.349,66.778 140.637,70.79 		"/>
		<path fill="#64AE5C" d="M134.755,27.573l-9.398,16.544c0.267,0.459,0.522,0.882,0.775,1.265l0.072,0.108l5.781,10.133
			l12.721-22.396L134.755,27.573z"/>
		<path fill="#F0E247" d="M123.628,21.253c-1.206,3-1.875,6.273-1.875,9.704c-0.001,3.1,0.581,6.19,1.68,9.109l8.127-14.307
			L123.628,21.253z"/>
		<path fill="#F0E247" d="M141.435,8.377l1.688-2.973c-1.615,0.279-3.179,0.707-4.677,1.275L141.435,8.377z"/>
		<path fill="#F0E247" d="M170.829,25.076l1.921,1.091c-0.197-1.052-0.46-2.084-0.782-3.096L170.829,25.076z"/>
		<path fill="#64AE5C" d="M144.628,10.192l9.953,5.654l4.547-8.003c-3.564-1.827-7.535-2.802-11.566-2.815L144.628,10.192z"/>
		<path fill="#64AE5C" d="M167.644,23.266l2.537-4.465c-1.878-3.563-4.573-6.675-7.914-9.048l-4.492,7.907L167.644,23.266z"/>
	</g>
</g>
</svg>
