<?xml version="1.0" encoding="utf-8"?>
<!-- Generator: Adobe Illustrator 14.0.0, SVG Export Plug-In . SVG Version: 6.00 Build 43363)  -->
<!DOCTYPE svg PUBLIC "-//W3C//DTD SVG 1.1//EN" "http://www.w3.org/Graphics/SVG/1.1/DTD/svg11.dtd">
<svg version="1.1" id="Capa_1" xmlns="http://www.w3.org/2000/svg" xmlns:xlink="http://www.w3.org/1999/xlink" x="0px" y="0px"
	 width="59.391px" height="85px" viewBox="0 0 59.391 85" enable-background="new 0 0 59.391 85" xml:space="preserve">
<g>
	<path id="Stroke-46_2_" fill="#FFFFFF" d="M59.39,30.483c0,5.156-1.336,10.142-3.824,14.603l-0.129,0.213l-0.209,0.316
		c-0.453,0.813-0.65,1.145-0.939,1.576l0.121-0.197L34.733,81.482c-2.234,3.914-7.846,3.914-10.078,0L4.979,46.994l0.121,0.197
		c-0.43-0.645-0.84-1.326-1.275-2.104c-2.49-4.461-3.826-9.445-3.824-14.605c0-16.516,13.293-29.9,29.693-29.9
		C46.093,0.582,59.39,13.971,59.39,30.483z"/>
	<g>
		<path fill="#E95941" d="M44.989,38.785l7.243,4.114c2.084-3.833,3.188-8.117,3.188-12.416c0-0.104-0.009-0.208-0.011-0.312
			l-4.179-2.374L44.989,38.785z"/>
		<path fill="#E95941" d="M15.593,22.085l6.242-10.987l-5.191-2.95c-3.794,2.262-6.963,5.476-9.184,9.316L15.593,22.085z"/>
		
			<rect x="20.57" y="15.509" transform="matrix(0.4938 -0.8696 0.8696 0.4938 -4.8501 34.1318)" fill="#7CC2DE" width="12.644" height="11.447"/>
		<polygon fill="#64AE5C" points="31.872,54.434 22.011,48.832 16.317,58.857 16.997,60.049 25.833,65.068 		"/>
		
			<rect x="26.239" y="36.539" transform="matrix(0.8694 0.4941 -0.4941 0.8694 25.3687 -10.1629)" fill="#7CC2DE" width="11.34" height="12.737"/>
		
			<rect x="34.318" y="22.362" transform="matrix(0.8695 0.494 -0.494 0.8695 19.3894 -16.0088)" fill="#C52714" width="11.337" height="12.644"/>
		<polygon fill="#F0E247" points="43.173,41.984 29.026,66.883 36.176,70.945 50.367,46.072 		"/>
		<path fill="#E95941" d="M27.212,70.08l-2.241,3.945l3.132,5.49c0.174,0.307,0.404,0.541,0.682,0.699
			c0.66,0.375,1.871,0.404,2.502-0.699l3.069-5.379L27.212,70.08z"/>
		<polygon fill="#C52714" points="24.019,68.266 20.565,66.305 22.854,70.316 		"/>
		<path fill="#64AE5C" d="M16.972,27.099L7.573,43.643c0.267,0.459,0.522,0.883,0.775,1.266l0.072,0.107l5.781,10.133l12.721-22.395
			L16.972,27.099z"/>
		<path fill="#F0E247" d="M5.845,20.779c-1.206,3-1.875,6.273-1.875,9.704c-0.001,3.1,0.581,6.19,1.68,9.109l8.127-14.307
			L5.845,20.779z"/>
		<path fill="#F0E247" d="M23.651,7.903L25.34,4.93c-1.615,0.279-3.179,0.707-4.677,1.275L23.651,7.903z"/>
		<path fill="#F0E247" d="M53.046,24.602l1.921,1.091c-0.197-1.052-0.46-2.084-0.781-3.096L53.046,24.602z"/>
		<path fill="#64AE5C" d="M26.845,9.718l9.953,5.654l4.547-8.003c-3.564-1.827-7.534-2.802-11.566-2.815L26.845,9.718z"/>
		<path fill="#64AE5C" d="M49.86,22.792l2.536-4.465c-1.878-3.563-4.572-6.675-7.914-9.048l-4.491,7.907L49.86,22.792z"/>
	</g>
</g>
</svg>
