<?xml version="1.0" encoding="utf-8"?>
<!-- Generator: Adobe Illustrator 16.0.0, SVG Export Plug-In . SVG Version: 6.00 Build 0)  -->
<!DOCTYPE svg PUBLIC "-//W3C//DTD SVG 1.1//EN" "http://www.w3.org/Graphics/SVG/1.1/DTD/svg11.dtd">
<svg version="1.1" id="Capa_1" xmlns="http://www.w3.org/2000/svg" xmlns:xlink="http://www.w3.org/1999/xlink" x="0px" y="0px"
	 width="99.437px" height="85px" viewBox="125.282 0.879 99.437 85" enable-background="new 125.282 0.879 99.437 85"
	 xml:space="preserve">
<path id="Shape" display="none" fill="#FFFFFF" d="M16.189,22.876c1.48,1.253,2.223,3.177,2.223,5.775s-0.763,4.498-2.281,5.702
	c-1.521,1.203-3.841,1.806-6.962,1.806H6.358v5.866H1.646V20.994h7.461C12.349,20.994,14.71,21.62,16.189,22.876L16.189,22.876z
	 M12.731,31.148c0.563-0.633,0.847-1.555,0.847-2.769s-0.367-2.075-1.104-2.588c-0.735-0.512-1.877-0.768-3.428-0.768H6.358v7.072
	H9.53C11.1,32.097,12.168,31.779,12.731,31.148L12.731,31.148z M30.07,42.025V20.994h4.712v16.85h9.002v4.182L30.07,42.025
	L30.07,42.025z M70.244,42.025l-1.965-4.542h-8.85l-1.964,4.542H52.45l9.123-21.031h4.561l9.123,21.033h-5.014L70.244,42.025
	L70.244,42.025z M63.869,27.253l-2.658,6.107h5.285L63.869,27.253L63.869,27.253z M100.449,20.994h4.711v21.033h-4.711L90.39,28.846
	v13.18h-4.712V20.994h4.409l10.363,13.541L100.449,20.994L100.449,20.994z M199.693,38.581c2.315,0,4.209-0.913,5.681-2.738
	l3.021,3.099c-2.396,2.689-5.223,4.032-8.473,4.032c-3.253,0-5.931-1.022-8.035-3.068c-2.104-2.046-3.156-4.628-3.156-7.749
	c0-3.118,1.072-5.721,3.218-7.807s4.767-3.13,7.866-3.13c3.465,0,6.365,1.314,8.701,3.942l-2.931,3.31
	c-1.489-1.845-3.343-2.77-5.56-2.77c-1.771,0-3.286,0.577-4.545,1.731c-1.26,1.153-1.889,2.708-1.889,4.663
	c0,1.956,0.594,3.526,1.781,4.709C196.563,37.989,198.002,38.581,199.693,38.581L199.693,38.581z M220.083,21.702h4.711v21.031
	h-4.711V21.702z M243.553,37.303c0.783,0.973,1.842,1.458,3.172,1.458c1.328,0,2.381-0.485,3.155-1.458
	c0.772-0.974,1.164-2.303,1.164-3.987V21.702h4.711v11.764c0,3.049-0.846,5.392-2.537,7.025c-1.69,1.636-3.854,2.454-6.495,2.454
	c-2.637,0-4.806-0.823-6.508-2.469c-1.701-1.644-2.553-3.981-2.553-7.011V21.702h4.711v11.613
	C242.373,35,242.768,36.33,243.553,37.303L243.553,37.303z M284.753,24.454c2.013,1.835,3.021,4.389,3.021,7.657
	c0,3.271-0.98,5.858-2.943,7.764s-4.958,2.858-8.987,2.858h-7.218V21.702h7.46C279.85,21.702,282.74,22.619,284.753,24.454
	L284.753,24.454z M281.294,36.956c1.158-1.082,1.738-2.657,1.738-4.724c0-2.065-0.58-3.656-1.738-4.77
	c-1.157-1.113-2.937-1.67-5.331-1.67h-2.629V38.58h2.991C278.479,38.581,280.137,38.04,281.294,36.956z M314.867,42.733
	l-1.963-4.543h-8.853l-1.963,4.543h-5.015l9.121-21.031h4.563l9.121,21.031H314.867L314.867,42.733z M308.496,27.959l-2.658,6.108
	h5.286L308.496,27.959L308.496,27.959z M346.434,24.454c2.015,1.835,3.021,4.389,3.021,7.657c0,3.271-0.981,5.858-2.944,7.764
	c-1.964,1.906-4.96,2.858-8.984,2.858h-7.223V21.702h7.461C341.529,21.702,344.419,22.619,346.434,24.454L346.434,24.454z
	 M342.975,36.956c1.157-1.082,1.736-2.657,1.736-4.724c0-2.065-0.579-3.656-1.738-4.77c-1.154-1.113-2.934-1.67-5.33-1.67h-2.627
	V38.58h2.989C340.159,38.581,341.816,38.04,342.975,36.956L342.975,36.956z"/>
<g display="none">
	<path id="Stroke-46_2_" display="inline" fill="#FFFFFF" d="M177.173,30.957c0,5.156-1.336,10.142-3.824,14.604l-0.129,0.213
		l-0.209,0.315c-0.453,0.813-0.65,1.146-0.939,1.577l0.121-0.198l-19.676,34.488c-2.234,3.914-7.846,3.914-10.078,0l-19.676-34.488
		l0.121,0.197c-0.43-0.646-0.84-1.325-1.275-2.103c-2.49-4.462-3.826-9.445-3.824-14.605c0-16.516,13.293-29.9,29.693-29.9
		C163.876,1.056,177.173,14.445,177.173,30.957z"/>
	<g display="inline">
		<path fill="#E95941" d="M162.773,39.259l7.243,4.114c2.084-3.833,3.189-8.117,3.189-12.416c0-0.104-0.009-0.208-0.01-0.312
			l-4.179-2.374L162.773,39.259z"/>
		<path fill="#E95941" d="M133.376,22.56l6.242-10.987l-5.191-2.95c-3.794,2.262-6.963,5.476-9.184,9.316L133.376,22.56z"/>
		
			<rect x="138.351" y="15.977" transform="matrix(-0.4938 0.8696 -0.8696 -0.4938 234.9806 -93.391)" fill="#7CC2DE" width="12.645" height="11.447"/>
		<polygon fill="#64AE5C" points="149.656,54.908 139.794,49.307 134.101,59.332 134.78,60.521 143.616,65.543 		"/>
		
			<rect x="144.024" y="37.01" transform="matrix(-0.8694 -0.4941 0.4941 -0.8694 258.4044 155.0561)" fill="#7CC2DE" width="11.34" height="12.736"/>
		
			<rect x="152.106" y="22.837" transform="matrix(-0.8695 -0.494 0.494 -0.8695 280.5499 132.4529)" fill="#C52714" width="11.337" height="12.645"/>
		<polygon fill="#F0E247" points="160.956,42.458 146.81,67.357 153.96,71.419 168.151,46.546 		"/>
		<path fill="#E95941" d="M144.995,70.555l-2.241,3.945l3.132,5.49c0.174,0.306,0.404,0.54,0.682,0.697
			c0.66,0.375,1.871,0.405,2.502-0.697l3.069-5.379L144.995,70.555z"/>
		<polygon fill="#C52714" points="141.802,68.74 138.349,66.777 140.637,70.79 		"/>
		<path fill="#64AE5C" d="M134.755,27.573l-9.398,16.544c0.267,0.459,0.522,0.882,0.775,1.265l0.072,0.108l5.781,10.133
			l12.721-22.396L134.755,27.573z"/>
		<path fill="#F0E247" d="M123.628,21.253c-1.206,3-1.875,6.273-1.875,9.704c-0.001,3.1,0.581,6.19,1.68,9.109l8.127-14.307
			L123.628,21.253z"/>
		<path fill="#F0E247" d="M141.435,8.377l1.688-2.973c-1.615,0.279-3.179,0.707-4.677,1.275L141.435,8.377z"/>
		<path fill="#F0E247" d="M170.829,25.076l1.921,1.091c-0.197-1.052-0.46-2.084-0.782-3.096L170.829,25.076z"/>
		<path fill="#64AE5C" d="M144.628,10.192l9.953,5.654l4.547-8.003c-3.564-1.827-7.535-2.802-11.566-2.815L144.628,10.192z"/>
		<path fill="#64AE5C" d="M167.644,23.266l2.537-4.465c-1.878-3.563-4.573-6.675-7.914-9.048l-4.492,7.907L167.644,23.266z"/>
	</g>
</g>
<g>
	<g id="t_1">
		<path fill="#FFFFFF" d="M171.115,53.928c-1.441,0-2.372-0.554-2.914-1.049c-1.433-1.303-1.496-3.279-1.498-3.501l-0.001-0.106
			l3.25-19.702c0.11-0.661,0.737-1.11,1.397-1.001c0.663,0.109,1.111,0.734,1.002,1.397l-3.212,19.469
			c0.028,0.368,0.191,1.192,0.708,1.654c0.337,0.304,0.809,0.437,1.438,0.403c1.504-0.471,2.306-1.249,3.252-4.484
			c0.188-0.646,0.867-1.015,1.507-0.826c0.646,0.188,1.015,0.864,0.826,1.507c-1.122,3.839-2.389,5.398-5.022,6.174l-0.243,0.045
			C171.434,53.922,171.271,53.928,171.115,53.928z"/>
	</g>
	<g id="t_2">
		<path fill="#FFFFFF" d="M186.855,49.812c-1.439,0-2.369-0.555-2.913-1.048c-1.432-1.305-1.496-3.281-1.497-3.503l-0.001-0.106
			l3.251-19.701c0.108-0.662,0.734-1.112,1.397-1.001c0.662,0.109,1.111,0.735,1.002,1.397l-3.215,19.469
			c0.03,0.368,0.193,1.193,0.708,1.654c0.339,0.305,0.808,0.434,1.438,0.404c1.506-0.47,2.308-1.247,3.253-4.485
			c0.188-0.645,0.866-1.014,1.507-0.826c0.646,0.188,1.015,0.863,0.826,1.508c-1.121,3.839-2.39,5.397-5.022,6.172l-0.242,0.044
			C187.178,49.805,187.014,49.812,186.855,49.812z"/>
	</g>
	<g id="i_1">
		<path fill="#FFFFFF" d="M184.76,45.69c-1.125,3.841-2.396,5.397-5.027,6.175l-0.242,0.043c-0.171,0.013-0.328,0.019-0.486,0.019
			c-1.442,0-2.371-0.554-2.919-1.047c-1.428-1.306-1.494-3.281-1.494-3.501v-0.108l0.783-4.753c0.426,0.333,0.961,0.528,1.545,0.528
			c0.297,0,0.59-0.055,0.856-0.152l-0.747,4.541c0.024,0.371,0.188,1.191,0.704,1.653c0.341,0.304,0.81,0.438,1.44,0.407
			c1.501-0.469,2.304-1.253,3.253-4.487c0.188-0.643,0.857-1.015,1.506-0.824C184.577,44.371,184.942,45.046,184.76,45.69z"/>
	</g>
	<g id="P_ligne">
		<path fill="#FFFFFF" d="M144.819,39.549c-0.441,0-0.859-0.258-1.045-0.689c-0.247-0.576,0.021-1.244,0.596-1.49
			c4.241-1.813,7.75-3.193,9.465-3.854c12.064-4.651,19.241-9.889,20.754-15.144c0.735-2.551,0.128-5.081-1.855-7.734
			c-2.47-3.305-7.129-4.583-13.117-3.596c-11.487,1.892-26.484,12.181-30.498,24.482c-0.195,0.595-0.833,0.921-1.432,0.727
			c-0.596-0.194-0.921-0.835-0.726-1.43c4.41-13.513,20.193-24.027,32.287-26.018c6.865-1.131,12.3,0.459,15.303,4.476
			c2.404,3.217,3.151,6.488,2.218,9.722c-2.169,7.535-13.226,13.204-22.119,16.632c-1.699,0.656-5.182,2.023-9.388,3.823
			C145.119,39.52,144.967,39.549,144.819,39.549z"/>
	</g>
	<g id="T_barre">
		<path fill="#FFFFFF" d="M165.302,40.481c-0.204,0-0.409-0.051-0.599-0.158c-0.585-0.33-0.789-1.077-0.459-1.662
			c1.005-1.786,5.394-3.146,14.428-5.81c11.157-3.289,26.434-7.792,28.5-13.281c0.236-0.629,0.939-0.946,1.566-0.709
			s0.945,0.938,0.709,1.566c-2.492,6.623-17.792,11.133-30.088,14.756c-5.458,1.609-12.252,3.612-13.004,4.682
			C166.132,40.261,165.724,40.481,165.302,40.481z"/>
	</g>
	<g id="e_1">
		<path fill="#FFFFFF" d="M168.42,47.824c-0.577-0.247-1.131-0.013-1.364,0.53l-0.444,0.965l-0.434,0.843
			c-0.136,0.264-0.286,0.518-0.453,0.768c-0.27,0.425-0.559,0.839-0.863,1.235c-0.296,0.387-0.617,0.754-0.908,1.047
			c-0.26,0.213-0.542,0.417-0.838,0.604c-0.242,0.152-0.489,0.242-0.756,0.271l-0.084,0.016c-0.057,0.014-0.113,0.021-0.171,0.021
			c-0.119,0-0.25-0.03-0.391-0.091c-0.091-0.072-0.162-0.16-0.217-0.267c-0.092-0.178-0.168-0.347-0.235-0.51
			c-0.116-0.465-0.169-0.969-0.161-1.503l0.393-0.216c0.122-0.079,0.246-0.152,0.37-0.221c0.153-0.084,0.304-0.171,0.442-0.264
			c0.446-0.277,0.878-0.575,1.285-0.884c0.421-0.319,0.825-0.688,1.213-1.11c0.213-0.248,0.429-0.529,0.643-0.836
			c0.23-0.33,0.415-0.685,0.548-1.055c0.132-0.366,0.214-0.746,0.24-1.126c0.03-0.445-0.082-0.886-0.345-1.334
			c-0.369-0.568-0.914-0.887-1.575-0.92c-0.568-0.029-1.097,0.068-1.589,0.293c-0.446,0.21-0.845,0.504-1.184,0.869
			c-0.307,0.334-0.589,0.692-0.831,1.067c-0.584,0.877-1.024,1.854-1.31,2.903c-0.285,1.042-0.417,2.103-0.394,3.16
			c0.016,0.498,0.079,1.017,0.186,1.539c0.12,0.585,0.368,1.106,0.734,1.549c0.34,0.41,0.748,0.702,1.211,0.867
			c0.322,0.115,0.663,0.175,1.012,0.175c0.14,0,0.283-0.009,0.429-0.027c0.966-0.131,1.831-0.551,2.566-1.255
			c0.669-0.638,1.252-1.303,1.754-2c0.229-0.355,0.444-0.7,0.641-1.034l0.608-1.033l0.642-1.258c0.079-0.176,0.151-0.38,0.215-0.61
			C169.134,48.513,168.921,48.069,168.42,47.824z M164.093,45.845c0.017,0,0.034,0,0.052,0.003c0.001,0.006,0.002,0.012,0.004,0.02
			c0.015,0.267-0.075,0.565-0.276,0.905c-0.353,0.63-0.847,1.188-1.47,1.656c-0.266,0.2-0.533,0.391-0.803,0.57
			c0.169-0.531,0.375-1.03,0.616-1.493c0.173-0.326,0.396-0.653,0.661-0.974c0.223-0.271,0.486-0.464,0.831-0.601
			C163.833,45.874,163.959,45.845,164.093,45.845z"/>
	</g>
	<g id="e_2">
		<path fill="#FFFFFF" d="M199.831,39.695c-0.575-0.248-1.132-0.014-1.367,0.532l-0.443,0.963l-0.433,0.842
			c-0.139,0.267-0.289,0.521-0.454,0.768c-0.265,0.42-0.558,0.834-0.861,1.234c-0.299,0.39-0.62,0.756-0.909,1.049
			c-0.263,0.215-0.545,0.418-0.84,0.604c-0.24,0.152-0.487,0.241-0.754,0.27l-0.086,0.016c-0.056,0.014-0.111,0.021-0.17,0.021
			c-0.119,0-0.25-0.031-0.391-0.09c-0.092-0.073-0.163-0.16-0.217-0.266c-0.091-0.179-0.169-0.348-0.234-0.512
			c-0.116-0.462-0.171-0.968-0.163-1.501l0.394-0.216c0.123-0.08,0.246-0.153,0.369-0.22c0.153-0.084,0.306-0.174,0.444-0.265
			c0.447-0.28,0.879-0.578,1.284-0.885c0.422-0.319,0.825-0.687,1.215-1.111c0.215-0.251,0.431-0.532,0.64-0.834
			c0.231-0.33,0.417-0.685,0.549-1.056c0.134-0.37,0.214-0.748,0.24-1.127c0.03-0.442-0.081-0.884-0.345-1.333
			c-0.368-0.568-0.914-0.886-1.576-0.922c-0.566-0.028-1.097,0.07-1.589,0.295c-0.445,0.209-0.843,0.501-1.182,0.869
			c-0.31,0.333-0.59,0.693-0.833,1.066c-0.583,0.877-1.023,1.854-1.31,2.904c-0.283,1.044-0.417,2.105-0.394,3.161
			c0.016,0.5,0.078,1.017,0.187,1.537c0.118,0.586,0.365,1.106,0.734,1.549c0.339,0.411,0.748,0.704,1.21,0.87
			c0.323,0.115,0.663,0.174,1.013,0.174c0.14,0,0.283-0.01,0.429-0.028c0.968-0.13,1.831-0.55,2.565-1.254
			c0.671-0.639,1.255-1.303,1.754-1.999c0.231-0.355,0.445-0.701,0.642-1.035l0.4-0.681l0.851-1.611
			c0.079-0.177,0.15-0.382,0.212-0.609C200.543,40.383,200.33,39.94,199.831,39.695z M195.502,37.717c0.017,0,0.034,0,0.053,0
			c0.001,0.006,0.002,0.013,0.004,0.021c0.015,0.266-0.075,0.566-0.275,0.905c-0.354,0.631-0.849,1.189-1.472,1.656
			c-0.265,0.2-0.531,0.39-0.802,0.572c0.17-0.532,0.374-1.031,0.615-1.495c0.174-0.327,0.396-0.655,0.662-0.976
			c0.224-0.271,0.484-0.462,0.831-0.599C195.242,37.745,195.368,37.717,195.502,37.717z"/>
	</g>
	<g id="_p_barre">
		<path fill="#FFFFFF" d="M151.293,58.06c-0.066,0-0.134-0.004-0.202-0.016c-0.662-0.11-1.108-0.737-0.998-1.4l5.83-34.904
			c0.11-0.662,0.735-1.109,1.398-0.999c0.663,0.11,1.11,0.737,1,1.399l-5.83,34.906C152.391,57.639,151.876,58.06,151.293,58.06z"/>
	</g>
	<g id="u1">
		<path fill="#FFFFFF" d="M159.248,77.188c-1.485,0-2.444-0.571-3.004-1.078c-1.482-1.347-1.551-3.393-1.555-3.622l-0.001-0.105
			l1.243-7.599c0.109-0.663,0.727-1.113,1.396-1.003c0.664,0.107,1.112,0.732,1.003,1.396l-1.206,7.368
			c0.031,0.392,0.207,1.277,0.763,1.773c0.367,0.328,0.875,0.471,1.553,0.434c1.604-0.502,2.556-1.39,3.535-4.763
			c0.189-0.645,0.861-1.015,1.508-0.827c0.645,0.188,1.015,0.862,0.828,1.507c-1.148,3.943-2.535,5.633-5.305,6.452l-0.242,0.046
			C159.586,77.181,159.414,77.188,159.248,77.188z"/>
	</g>
	<g id="u_2">
		<path fill="#FFFFFF" d="M167.488,75.042c-1.487,0-2.446-0.57-3.005-1.077c-1.483-1.345-1.552-3.393-1.555-3.621l-0.001-0.105
			l1.183-7.232c0.109-0.662,0.729-1.112,1.396-1.004c0.664,0.11,1.112,0.734,1.003,1.396l-1.145,7.001
			c0.03,0.391,0.205,1.276,0.761,1.774c0.368,0.329,0.874,0.471,1.555,0.435c1.539-0.47,2.562-1.082,3.582-4.586
			c0.188-0.645,0.861-1.016,1.507-0.828c0.645,0.188,1.015,0.861,0.827,1.508c-1.101,3.79-2.501,5.432-5.351,6.275l-0.244,0.045
			C167.825,75.035,167.653,75.042,167.488,75.042z"/>
	</g>
	<g id="_x31__2">
		<path fill="#FFFFFF" d="M183.441,61.646l-1.721,4.99c-1.643,4.602-2.414,5.548-5.191,6.369l-0.243,0.049
			c-0.177,0.013-0.346,0.024-0.517,0.024c-1.482,0-2.443-0.571-3.002-1.081c-1.483-1.344-1.55-3.393-1.556-3.624v-0.104l0.869-5.3
			c0.444,0.375,1.015,0.602,1.642,0.602c0.256,0,0.504-0.037,0.741-0.109l-0.814,4.966c0.031,0.396,0.207,1.276,0.76,1.774
			c0.372,0.328,0.875,0.475,1.562,0.438c1.569-0.468,1.988-0.686,3.459-4.807l1.713-4.984c0.22-0.633,0.907-0.973,1.545-0.753
			C183.324,60.315,183.659,61.008,183.441,61.646z"/>
	</g>
	<g id="i_3">
		<path fill="#FFFFFF" d="M200.908,60.443c-0.03,0.157-0.213,0.966-0.34,1.336l-0.037,0.115c-1.198,3.574-3.118,5.731-5.414,6.084
			l-0.088,0.014c-0.175,0.012-0.351,0.017-0.517,0.017c-1.482,0-2.442-0.565-3.002-1.076c-1.482-1.349-1.55-3.392-1.556-3.622
			v-0.104l0.937-5.726c0.442,0.37,1.009,0.59,1.629,0.59c0.261,0,0.517-0.036,0.753-0.115l-0.881,5.409
			c0.029,0.396,0.206,1.276,0.759,1.775c0.383,0.34,0.919,0.479,1.63,0.432c1.319-0.231,2.57-1.848,3.447-4.449l0.048-0.146
			c0.048-0.151,0.184-0.717,0.262-1.063c0.146-0.656,0.802-1.069,1.453-0.925C200.642,59.136,201.055,59.786,200.908,60.443z"/>
	</g>
	<g id="e">
		<path fill="#FFFFFF" d="M224.05,52.3c-0.631-0.267-1.224-0.012-1.474,0.578l-0.531,1.155l-0.515,1.004
			c-0.165,0.321-0.345,0.627-0.545,0.924c-0.319,0.504-0.666,1.002-1.03,1.48c-0.349,0.458-0.727,0.891-1.125,1.29
			c-0.307,0.25-0.639,0.491-0.987,0.71c-0.3,0.193-0.61,0.304-0.946,0.342l-0.084,0.015c-0.234,0.061-0.48,0.029-0.759-0.092
			c-0.128-0.099-0.229-0.216-0.303-0.364c-0.112-0.217-0.208-0.427-0.29-0.626c-0.147-0.584-0.215-1.221-0.198-1.896l0.519-0.284
			c0.147-0.097,0.299-0.187,0.45-0.27c0.179-0.098,0.354-0.202,0.521-0.311c0.53-0.334,1.042-0.688,1.521-1.052
			c0.502-0.379,0.976-0.813,1.43-1.308c0.258-0.305,0.514-0.638,0.756-0.987c0.27-0.39,0.482-0.805,0.635-1.229
			c0.156-0.436,0.249-0.876,0.277-1.312c0.036-0.505-0.093-1.008-0.395-1.521c-0.42-0.644-1.037-1.003-1.786-1.041
			c-0.656-0.031-1.268,0.083-1.836,0.343c-0.514,0.24-0.977,0.58-1.374,1.01c-0.361,0.394-0.693,0.818-0.976,1.258
			c-0.688,1.034-1.206,2.188-1.542,3.43c-0.333,1.229-0.489,2.482-0.462,3.733c0.022,0.595,0.098,1.203,0.222,1.811
			c0.142,0.681,0.429,1.285,0.854,1.793c0.391,0.472,0.859,0.809,1.395,0.999c0.367,0.132,0.759,0.2,1.161,0.2
			c0.164,0,0.331-0.013,0.502-0.035c1.124-0.149,2.13-0.643,2.99-1.465c0.794-0.76,1.482-1.548,2.067-2.366
			c0.274-0.423,0.527-0.833,0.761-1.229l0.719-1.225l0.761-1.492c0.09-0.203,0.171-0.436,0.25-0.716
			C224.816,53.042,224.588,52.565,224.05,52.3z M218.937,49.729c0.048,0,0.095,0.002,0.139-0.007c0,0.001,0.03,0.04,0.042,0.141
			c0.019,0.34-0.093,0.72-0.341,1.143c-0.428,0.768-1.026,1.443-1.782,2.012c-0.405,0.307-0.815,0.595-1.229,0.866
			c0.218-0.756,0.496-1.463,0.833-2.109c0.215-0.405,0.483-0.804,0.797-1.184c0.282-0.344,0.608-0.581,1.033-0.749
			C218.591,49.765,218.757,49.729,218.937,49.729z"/>
	</g>
	<g id="n">
		<path fill="#FFFFFF" d="M214.616,55.472c-0.638-0.215-1.327,0.129-1.54,0.765c-1.42,4.228-2.868,5.245-3.256,5.449
			c-0.135-0.363-0.23-1.203,0.062-2.109c2.123-6.638,0.647-8.352-0.268-8.793c-0.887-0.545-1.85-0.634-2.79-0.258
			c-1.923,0.771-3.545,3.645-4.772,6.676l0.038-3.951c0-0.011-0.002-0.019-0.003-0.03c0-0.043-0.008-0.088-0.013-0.131
			c-0.004-0.037-0.007-0.073-0.015-0.11c-0.009-0.039-0.023-0.077-0.036-0.116c-0.012-0.037-0.023-0.074-0.037-0.108
			c-0.017-0.037-0.037-0.07-0.056-0.104c-0.02-0.034-0.036-0.067-0.059-0.101c-0.023-0.032-0.05-0.062-0.075-0.092
			c-0.024-0.029-0.048-0.058-0.074-0.085c-0.029-0.028-0.062-0.053-0.092-0.077c-0.03-0.025-0.059-0.05-0.09-0.069
			c-0.033-0.021-0.067-0.038-0.104-0.058c-0.035-0.019-0.07-0.038-0.107-0.053c-0.033-0.015-0.069-0.023-0.104-0.035
			c-0.043-0.013-0.086-0.025-0.13-0.035c-0.009-0.001-0.018-0.005-0.027-0.007c-0.031-0.005-0.06-0.003-0.09-0.005
			c-0.032-0.004-0.063-0.011-0.095-0.012c-0.004,0-0.007,0-0.012,0c-0.008,0-0.016,0.003-0.022,0.003
			c-0.045,0.001-0.087,0.008-0.129,0.012c-0.039,0.005-0.076,0.009-0.113,0.017s-0.072,0.021-0.108,0.034
			c-0.04,0.012-0.079,0.023-0.117,0.041c-0.031,0.012-0.06,0.03-0.09,0.047c-0.039,0.021-0.078,0.041-0.113,0.065
			c-0.029,0.02-0.053,0.043-0.079,0.065c-0.032,0.026-0.065,0.054-0.098,0.084c-0.024,0.027-0.046,0.056-0.068,0.084
			c-0.025,0.032-0.053,0.063-0.076,0.098c-0.02,0.03-0.036,0.063-0.053,0.096c-0.021,0.038-0.04,0.075-0.058,0.114
			c-0.013,0.032-0.021,0.067-0.031,0.101c-0.013,0.044-0.027,0.086-0.035,0.133c-0.003,0.009-0.007,0.017-0.01,0.027l-1.107,6.788
			c-0.11,0.663,0.34,1.287,1.003,1.396c0.004,0,0.011,0,0.015,0.002l-0.039,4.21c-0.006,0.62,0.456,1.145,1.072,1.218
			c0.049,0.007,0.097,0.008,0.144,0.008c0.559,0,1.054-0.382,1.184-0.939c1.133-4.866,3.677-12.1,5.784-12.943
			c0.192-0.077,0.37-0.09,0.647,0.093c0.001,0.001,0.002,0.002,0.002,0.002c0.027,0.052,0.074,0.166,0.114,0.369
			c0.119,0.634,0.158,2.203-0.926,5.587c-0.479,1.501-0.49,3.619,0.621,4.728c0.564,0.564,1.328,0.757,2.1,0.533
			c0.715-0.163,3.102-1.151,5.096-7.085C215.595,56.373,215.253,55.685,214.616,55.472z"/>
	</g>
	<g id="s">
		<path fill="#FFFFFF" d="M191.512,62.527c-0.645-0.188-1.318,0.184-1.506,0.827c-0.875,3.012-1.757,3.886-2.94,4.363
			c0.035-0.615-0.032-1.236-0.215-1.85c-0.19-0.636-0.414-1.245-0.659-1.786c-0.268-0.672-0.584-1.339-0.937-1.984
			c-0.326-0.59-0.619-1.211-0.865-1.82c-0.102-0.291-0.195-0.571-0.286-0.844c-0.069-0.205-0.104-0.416-0.106-0.65
			c-0.002-0.059,0.007-0.108,0.029-0.154c0.104-0.225,0.15-0.466,0.14-0.661c0.023-0.547-0.312-0.965-0.869-1.09
			c-0.589-0.134-1.082,0.165-1.264,0.758l-0.221,0.74c-0.298,0.962-0.578,1.914-0.831,2.829c-0.268,0.958-0.544,1.898-0.811,2.756
			c-0.04,0.103-0.087,0.215-0.144,0.339c-0.081,0.178-0.142,0.373-0.18,0.585c-0.041,0.247-0.026,0.481,0.043,0.695
			c0.059,0.184,0.229,0.507,0.719,0.646c0.273,0.093,0.567,0.062,0.822-0.09c0.243-0.143,0.408-0.357,0.469-0.608l0.355-1.015
			c0.24-0.699,0.47-1.417,0.688-2.146c0.068,0.132,0.136,0.264,0.209,0.392c0.324,0.593,0.627,1.196,0.896,1.796
			c0.203,0.451,0.387,0.912,0.548,1.372c0.152,0.432,0.249,0.88,0.284,1.313c0.017,0.308-0.016,0.598-0.097,0.862
			c-0.129,0.102-0.239,0.229-0.319,0.382c-0.029,0.053-0.048,0.108-0.067,0.162c-0.017,0.015-0.027,0.032-0.047,0.047
			c-0.065,0.047-0.125,0.078-0.198,0.102c-0.104,0.034-0.215,0.063-0.337,0.09c-0.144,0.034-0.293,0.07-0.45,0.108
			c-0.117,0.029-0.227,0.044-0.384,0.053c-0.493,0.06-1.002,0.033-1.59-0.089c-0.262-0.043-0.522-0.114-0.784-0.215
			c-0.139-0.053-0.278-0.109-0.424-0.175c-0.325-0.147-0.685-0.126-0.99,0.06c-0.28,0.141-0.469,0.378-0.533,0.686
			c-0.046,0.243-0.014,0.491,0.093,0.733l0.061,0.104c0.154,0.216,0.375,0.378,0.657,0.486c0.186,0.07,0.354,0.123,0.506,0.16
			c0.618,0.21,1.253,0.347,1.89,0.407c0.217,0.021,0.435,0.03,0.651,0.03c0.438,0,0.88-0.042,1.317-0.125
			c0.436-0.085,1.142-0.342,1.77-0.754c0.202,0.041,0.4,0.058,0.579,0.058c0.387,0,0.694-0.071,0.808-0.102
			c2.848-0.845,4.247-2.486,5.351-6.274C192.527,63.39,192.158,62.715,191.512,62.527z"/>
	</g>
	<g id="_x30__3">
		<g>
			<path fill="#FFFFFF" d="M193.87,55.513c0,0.341-0.127,0.65-0.341,0.882c-0.242,0.284-0.607,0.461-1.009,0.461
				c-0.681,0-1.252-0.51-1.338-1.165c-0.006-0.063-0.011-0.115-0.011-0.178c0-0.23,0.06-0.45,0.163-0.638
				c0-0.007,0.007-0.02,0.014-0.024c0.23-0.414,0.668-0.687,1.173-0.687c0.347,0,0.662,0.133,0.906,0.352
				C193.699,54.759,193.87,55.119,193.87,55.513z"/>
		</g>
	</g>
	<g id="_x30__2">
		<g>
			<path fill="#FFFFFF" d="M175.07,61.008c0,0.353-0.133,0.675-0.358,0.911c-0.244,0.269-0.602,0.438-0.99,0.438
				c-0.7,0-1.271-0.521-1.344-1.202c0-0.006,0-0.006,0-0.006c-0.006-0.049-0.006-0.092-0.006-0.141c0-0.2,0.042-0.388,0.121-0.56
				c0.213-0.468,0.681-0.789,1.229-0.789c0.54,0,1.009,0.321,1.228,0.784C175.027,60.613,175.07,60.808,175.07,61.008z"/>
		</g>
	</g>
	<g id="_x30__1">
		<g>
			<path fill="#FFFFFF" d="M178.268,40.481c0,0.268-0.08,0.511-0.213,0.723c-0.243,0.377-0.662,0.626-1.138,0.626
				c-0.594,0-1.1-0.389-1.281-0.924c-0.043-0.133-0.067-0.28-0.067-0.425c0-0.31,0.104-0.59,0.275-0.808
				c0.241-0.329,0.637-0.542,1.075-0.542c0.632,0,1.167,0.438,1.307,1.027C178.255,40.263,178.268,40.372,178.268,40.481z"/>
		</g>
	</g>
	<g id="c">
		<path fill="#FFFFFF" d="M140.049,82.31c-0.989,0-1.977-0.08-2.954-0.251c-5.882-1.024-9.919-5.162-11.366-11.652
			c-2.091-9.366,3.49-16.441,9.56-19.051c6.395-2.75,13.021-0.828,16.877,4.899c0.375,0.557,0.227,1.313-0.33,1.687
			c-0.558,0.377-1.312,0.229-1.687-0.329c-3.85-5.717-9.705-5.827-13.901-4.024c-5.176,2.228-9.935,8.274-8.146,16.289
			c1.561,7.006,5.979,9.189,9.409,9.787c6.655,1.16,14.171-2.589,16.759-6.677c0.358-0.567,1.109-0.735,1.677-0.378
			c0.567,0.36,0.736,1.111,0.377,1.678C153.65,78.512,146.861,82.31,140.049,82.31z"/>
	</g>
	<g id="m">
		<path fill="#FFFFFF" d="M195.803,13.377l-0.056-0.024c-0.414-0.153-0.818-0.024-1.034,0.31c-0.083,0.128-0.153,0.259-0.212,0.391
			l-0.35,0.792c-0.15,0.312-0.304,0.615-0.457,0.907c-0.155,0.293-0.318,0.59-0.474,0.861c-0.137,0.213-0.285,0.428-0.443,0.645
			c-0.021,0.03-0.045,0.059-0.066,0.086c0-0.025,0-0.049,0-0.073c0.019-0.393,0.057-0.775,0.113-1.14
			c0.058-0.393,0.117-0.792,0.177-1.208l0.142-1.208c0.061-0.501,0.026-0.994-0.099-1.46c-0.055-0.202-0.141-0.391-0.249-0.555
			c-0.129-0.197-0.303-0.359-0.56-0.504c-0.248-0.12-0.521-0.166-0.802-0.135c-0.223,0.023-0.431,0.073-0.632,0.151
			c-0.416,0.159-0.785,0.403-1.098,0.727c-0.273,0.283-0.521,0.589-0.73,0.899c-0.229,0.322-0.439,0.66-0.63,1.01
			c-0.05-0.143-0.107-0.283-0.174-0.42c-0.184-0.391-0.457-0.693-0.816-0.9c-0.398-0.228-0.802-0.289-1.359-0.103
			c-0.368,0.148-0.686,0.367-0.942,0.651c-0.218,0.24-0.412,0.493-0.576,0.75c-0.106,0.149-0.205,0.304-0.297,0.462
			c-0.006-0.006-0.009-0.012-0.013-0.018c-0.149-0.243-0.358-0.443-0.643-0.606c-0.463-0.242-0.939-0.241-1.353,0
			c-0.295,0.174-0.55,0.398-0.723,0.622c-0.296,0.314-0.544,0.665-0.738,1.044c-0.17,0.333-0.339,0.671-0.51,1.019l-0.59,1.248
			l-0.146,0.29c-0.174,0.301-0.169,0.646,0.012,0.945c0.19,0.318,0.512,0.482,0.919,0.426l0.073-0.015
			c0.304-0.082,0.462-0.26,0.546-0.402c0.042-0.075,0.079-0.155,0.109-0.238l0.818-1.675c0.108-0.187,0.206-0.371,0.293-0.552
			c0.077-0.156,0.161-0.316,0.231-0.439c0.084-0.123,0.169-0.241,0.256-0.357c0.012,0.163,0.018,0.313,0.016,0.46
			c0.011,0.283,0,0.565-0.024,0.84c-0.027,0.292-0.064,0.585-0.11,0.883c-0.055,0.392-0.12,0.78-0.195,1.168
			c-0.077,0.399-0.153,0.803-0.228,1.207l-0.145,0.773c-0.075,0.369,0.03,0.712,0.291,0.94l0.095,0.068
			c0.165,0.095,0.333,0.143,0.502,0.143c0.325,0,0.613-0.179,0.792-0.49l0.032-0.062c0.065-0.152,0.111-0.315,0.135-0.491
			l0.036-0.284l0.617-2.39c0.166-0.555,0.355-1.125,0.559-1.692c0.191-0.532,0.431-1.05,0.729-1.57
			c0.081-0.16,0.179-0.32,0.291-0.474c0.104-0.141,0.22-0.265,0.322-0.351c0.033-0.024,0.062-0.044,0.085-0.06
			c0.03,0.052,0.054,0.103,0.072,0.15c0.115,0.313,0.187,0.647,0.208,0.99c0.025,0.385,0.035,0.769,0.029,1.162
			c0.006,0.21,0.001,0.417-0.003,0.617c-0.008,0.203-0.02,0.403-0.037,0.611c-0.003,0.065-0.016,0.126-0.036,0.188
			c-0.037,0.116-0.068,0.227-0.107,0.366l-0.134,0.595c-0.08,0.312-0.125,0.621-0.133,0.917c-0.015,0.161-0.003,0.314,0.035,0.451
			c0.044,0.167,0.157,0.4,0.445,0.563c0.155,0.089,0.316,0.136,0.48,0.136c0.177,0,0.513-0.058,0.75-0.422
			c0.119-0.163,0.199-0.347,0.24-0.545c0.021-0.101,0.043-0.195,0.08-0.326c0.042-0.211,0.076-0.42,0.101-0.626
			c0.023-0.196,0.042-0.4,0.063-0.631c0.007-0.105,0.015-0.206,0.024-0.31c0.005-0.064,0.018-0.127,0.027-0.167l0.346-1.048
			c0.053-0.157,0.113-0.308,0.203-0.492c0.141-0.345,0.289-0.687,0.44-1.025c0.145-0.322,0.31-0.643,0.474-0.93
			c0.16-0.255,0.328-0.502,0.502-0.744c0.15-0.209,0.335-0.408,0.563-0.6c0.037-0.034,0.093-0.069,0.167-0.113
			c0.01-0.006,0.02-0.012,0.029-0.017l-0.002,0.367c-0.001,0.177-0.014,0.343-0.032,0.496c-0.025,0.185-0.051,0.375-0.072,0.563
			c-0.052,0.41-0.113,0.823-0.181,1.237c-0.074,0.448-0.127,0.898-0.156,1.328c-0.024,0.292-0.024,0.623-0.002,1.01
			c0.034,0.549,0.279,0.984,0.696,1.248c0.434,0.293,0.924,0.303,1.394,0.114c0.18-0.071,0.357-0.166,0.527-0.284
			c0.173-0.119,0.32-0.247,0.409-0.35c0.341-0.339,0.639-0.727,0.883-1.152c0.224-0.39,0.435-0.782,0.63-1.17
			c0.126-0.247,0.242-0.495,0.352-0.75c0.095-0.226,0.19-0.446,0.289-0.664c0.075-0.135,0.142-0.29,0.203-0.471
			C196.438,14.025,196.247,13.596,195.803,13.377z"/>
	</g>
	<g id="a">
		<path fill="#FFFFFF" d="M203.891,11.172c-0.405-0.093-0.786,0.067-1.017,0.475l-0.635,1.33c-0.203,0.424-0.428,0.852-0.69,1.31
			c-0.07,0.145-0.151,0.284-0.24,0.417l-0.307,0.458c-0.054,0.075-0.113,0.142-0.18,0.202c-0.064,0.059-0.138,0.109-0.229,0.161
			c-0.024-0.037-0.04-0.077-0.051-0.125c-0.034-0.15-0.051-0.288-0.06-0.45c-0.019-0.186-0.026-0.374-0.019-0.561
			c0.006-0.202,0.017-0.4,0.038-0.645c0-0.081,0.009-0.157,0.021-0.211c0.027-0.106,0.05-0.216,0.074-0.33
			c0.039-0.119,0.073-0.237,0.108-0.358c0.035-0.131,0.065-0.262,0.088-0.367c0.098-0.401,0.187-0.791,0.262-1.168
			c0.076-0.377,0.147-0.762,0.21-1.154l0.008-0.062c0.002-0.032,0.013-0.076,0.03-0.144c0.036-0.158,0.054-0.31,0.054-0.443
			c0.002-0.2-0.04-0.383-0.127-0.553c-0.138-0.26-0.402-0.419-0.688-0.437c-0.155-0.019-0.289-0.017-0.407,0
			c-0.056,0.007-0.121,0.014-0.247,0.024c-0.521,0.078-1.023,0.24-1.493,0.481c-0.452,0.231-0.873,0.514-1.246,0.835
			c-0.309,0.262-0.599,0.56-0.858,0.886c-0.247,0.309-0.476,0.631-0.674,0.949c-0.261,0.4-0.493,0.825-0.69,1.261
			c-0.204,0.453-0.354,0.931-0.438,1.393c-0.081,0.355-0.139,0.723-0.169,1.092c-0.034,0.399-0.009,0.795,0.081,1.211
			c0.093,0.341,0.242,0.66,0.446,0.951c0.242,0.341,0.57,0.58,0.977,0.709c0.211,0.067,0.426,0.102,0.641,0.102
			c0.27,0,0.542-0.054,0.808-0.161c0.407-0.163,0.767-0.375,1.098-0.658c0.289-0.277,0.551-0.593,0.779-0.945
			c0.248,0.371,0.636,0.606,1.109,0.674c0.547,0.099,1.031-0.019,1.449-0.334c0.331-0.251,0.613-0.543,0.822-0.852
			c0.289-0.391,0.545-0.809,0.763-1.241l0.613-1.217c0.085-0.174,0.169-0.354,0.251-0.536c0.073-0.16,0.155-0.319,0.247-0.476
			c0.035-0.061,0.066-0.127,0.099-0.2c0.06-0.132,0.088-0.281,0.086-0.445C204.58,11.597,204.313,11.27,203.891,11.172z
			 M199.056,11.236c-0.049,0.194-0.087,0.387-0.119,0.58c-0.027,0.179-0.054,0.368-0.071,0.528l-0.105,0.587
			c-0.009,0.081-0.022,0.164-0.036,0.236c-0.013,0.056-0.032,0.118-0.082,0.238c-0.107,0.332-0.226,0.665-0.356,1.002
			c-0.124,0.318-0.268,0.62-0.427,0.896c-0.135,0.236-0.288,0.46-0.45,0.668c-0.142,0.177-0.317,0.33-0.502,0.443
			c-0.104,0.059-0.222,0.113-0.35,0.162c-0.059,0.022-0.11,0.034-0.152,0.044c-0.049-0.05-0.096-0.109-0.125-0.157
			c-0.096-0.171-0.146-0.358-0.152-0.571c-0.01-0.273,0.005-0.529,0.036-0.758c0.059-0.39,0.162-0.773,0.308-1.14
			c0.152-0.378,0.336-0.744,0.557-1.102c0.174-0.304,0.367-0.599,0.575-0.876c0.195-0.265,0.43-0.518,0.693-0.751
			c0.259-0.229,0.554-0.431,0.877-0.598c0.011-0.006,0.022-0.012,0.033-0.018C199.157,10.841,199.107,11.035,199.056,11.236z"/>
		<g id="Calque_2">
		</g>
	</g>
</g>
</svg>
