<?xml version="1.0" encoding="utf-8"?>
<!-- Generator: Adobe Illustrator 14.0.0, SVG Export Plug-In . SVG Version: 6.00 Build 43363)  -->
<!DOCTYPE svg PUBLIC "-//W3C//DTD SVG 1.1//EN" "http://www.w3.org/Graphics/SVG/1.1/DTD/svg11.dtd">
<svg version="1.1" xmlns="http://www.w3.org/2000/svg" xmlns:xlink="http://www.w3.org/1999/xlink" x="0px" y="0px" width="1000px"
	 height="600px" viewBox="0 0 1000 600" enable-background="new 0 0 1000 600" xml:space="preserve">
<g id="Capa_2">
	<rect fill="#FAFAFA" width="1000" height="600"/>
</g>
<g id="Capa_1">
	<g>
		<defs>
			<rect id="SVGID_1_" width="1000" height="600"/>
		</defs>
		<clipPath id="SVGID_2_">
			<use xlink:href="#SVGID_1_"  overflow="visible"/>
		</clipPath>
		<g clip-path="url(#SVGID_2_)">
			<g>
				<g>
					<path fill="#EFEFEF" d="M-250.065,142.807c-0.41,0.88-1.456,1.263-2.338,0.852l-136.244-63.531
						c-0.88-0.411-1.261-1.459-0.851-2.339l51.633-110.728c0.411-0.88,1.458-1.261,2.338-0.851l158.572,73.943
						c0.881,0.411,1.261,1.458,0.85,2.338L-250.065,142.807z"/>
					<path fill="#EFEFEF" d="M-337.809,264.353c-0.411,0.882-1.457,1.264-2.339,0.853l-110.727-51.632
						c-0.88-0.411-1.261-1.459-0.85-2.339l51.633-110.729c0.411-0.88,1.458-1.261,2.338-0.852l131.46,61.301
						c0.881,0.41,1.262,1.458,0.85,2.339L-337.809,264.353z"/>
					<path fill="#EFEFEF" d="M395.354,443.771c-0.409,0.879-1.456,1.264-2.337,0.852L282.29,392.99
						c-0.879-0.41-1.262-1.457-0.852-2.338l51.633-110.729c0.411-0.881,1.458-1.261,2.338-0.85l110.727,51.631
						c0.881,0.412,1.264,1.459,0.853,2.34L395.354,443.771z"/>
					<path fill="#EFEFEF" d="M333.128,577.217c-0.41,0.881-1.457,1.262-2.338,0.852l-110.727-51.631
						c-0.881-0.412-1.263-1.461-0.852-2.338l51.633-110.73c0.411-0.881,1.458-1.262,2.339-0.852l110.728,51.633
						c0.881,0.412,1.261,1.457,0.85,2.34L333.128,577.217z"/>
					<path fill="#EFEFEF" d="M528.736,505.969c-0.411,0.881-1.457,1.262-2.34,0.85l-110.725-51.631
						c-0.881-0.41-1.261-1.459-0.853-2.338l51.635-110.727c0.411-0.885,1.457-1.266,2.338-0.854l110.726,51.633
						c0.882,0.41,1.262,1.455,0.852,2.338L528.736,505.969z"/>
					<path fill="#EFEFEF" d="M-212.41-3.436c-0.411,0.88-1.457,1.263-2.338,0.852l-110.727-51.632
						c-0.881-0.41-1.261-1.459-0.851-2.338l51.633-110.729c0.41-0.881,1.458-1.262,2.339-0.851l110.727,51.632
						c0.881,0.411,1.261,1.458,0.85,2.339L-212.41-3.436z"/>
					<path fill="#EFEFEF" d="M-79.029,58.761c-0.41,0.879-1.457,1.262-2.338,0.85L-192.093,7.98
						c-0.882-0.411-1.262-1.458-0.852-2.339l51.634-110.728c0.411-0.881,1.456-1.263,2.338-0.852l110.725,51.633
						c0.882,0.411,1.263,1.458,0.852,2.338L-79.029,58.761z"/>
					<path fill="#EFEFEF" d="M189.417,183.94c-0.411,0.878-1.458,1.261-2.339,0.85L76.351,133.158
						c-0.88-0.411-1.261-1.458-0.85-2.339l51.633-110.727c0.41-0.882,1.458-1.263,2.339-0.852L240.2,70.872
						c0.881,0.411,1.261,1.458,0.851,2.34L189.417,183.94z"/>
					<path fill="#EFEFEF" d="M322.797,246.135c-0.411,0.88-1.457,1.264-2.339,0.853l-110.724-51.633
						c-0.883-0.412-1.262-1.459-0.852-2.34l51.633-110.728c0.41-0.88,1.457-1.262,2.339-0.85l110.724,51.632
						c0.882,0.411,1.262,1.458,0.851,2.338L322.797,246.135z"/>
					<path fill="#EFEFEF" d="M405.643,769.941c-0.887,1.902-2.321,3.115-3.204,2.703l-110.726-51.633
						c-0.881-0.41-0.874-2.287,0.015-4.189l111.635-239.404c0.889-1.904,2.322-3.113,3.203-2.703l110.725,51.633
						c0.881,0.41,0.875,2.289-0.014,4.191L405.643,769.941z"/>
					<path fill="#EFEFEF" d="M62.921,451.219c-0.412,0.881-1.458,1.262-2.338,0.85l-242.58-113.115
						c-0.88-0.412-1.262-1.457-0.85-2.34L-69.731,94.035c0.411-0.881,1.458-1.261,2.339-0.851l242.58,113.117
						c0.881,0.411,1.261,1.457,0.851,2.337L62.921,451.219z"/>
					<path fill="#EFEFEF" d="M136.1,646.508c-0.411,0.881-3.128,0.484-6.072-0.891l-370.02-172.543
						c-2.943-1.373-4.997-3.199-4.586-4.08l51.634-110.729c0.411-0.881,3.13-0.482,6.074,0.891l370.019,172.543
						c2.945,1.375,4.996,3.199,4.587,4.08L136.1,646.508z"/>
					<path fill="#EFEFEF" d="M2.719,584.309c-0.411,0.883-1.458,1.266-2.339,0.852l-110.726-51.629
						c-0.881-0.412-1.261-1.459-0.851-2.34l51.634-110.73c0.41-0.879,1.457-1.262,2.338-0.848L53.5,471.242
						c0.882,0.412,1.262,1.459,0.852,2.34L2.719,584.309z"/>
					<path fill="#EFEFEF" d="M136.1,646.508c-0.411,0.881-1.457,1.262-2.338,0.852L23.034,595.727
						c-0.88-0.412-1.261-1.459-0.851-2.338L73.816,482.66c0.411-0.881,1.459-1.264,2.339-0.852l110.727,51.631
						c0.881,0.412,1.261,1.459,0.853,2.34L136.1,646.508z"/>
					<path fill="#EFEFEF" d="M269.48,708.705c-0.41,0.879-1.457,1.262-2.338,0.85l-110.726-51.633
						c-0.882-0.41-1.262-1.457-0.852-2.338L207.2,544.857c0.409-0.881,1.456-1.264,2.337-0.854l110.726,51.633
						c0.881,0.412,1.263,1.461,0.852,2.34L269.48,708.705z"/>
					<path fill="#EFEFEF" d="M-203.936,327.752c-0.41,0.879-1.456,1.262-2.337,0.852L-317,276.97
						c-0.881-0.41-1.262-1.459-0.852-2.338l162.077-222.661c0.41-0.881,1.458-1.262,2.339-0.851l62.882,29.322
						c0.882,0.411,1.262,1.458,0.851,2.338L-203.936,327.752z"/>
					<path fill="#EFEFEF" d="M56.036,121.743c-0.411,0.879-1.458,1.262-2.339,0.851L-57.029,70.96
						c-0.881-0.41-1.263-1.458-0.852-2.338L56.35-176.349c0.411-0.881,1.459-1.262,2.339-0.852l110.728,51.633
						c0.881,0.411,1.261,1.457,0.85,2.338L56.036,121.743z"/>
					<path fill="#EFEFEF" d="M-512.603,345.953c-0.88-0.412-1.263-1.457-0.851-2.34l51.631-110.727
						c0.412-0.881,1.459-1.261,2.339-0.849l244.972,114.232c0.88,0.408,1.261,1.459,0.851,2.336l-51.633,110.729
						c-0.411,0.881-1.459,1.262-2.338,0.854L-512.603,345.953z"/>
					<path fill="#EFEFEF" d="M345.031,258.442c-0.88-0.41-1.263-1.456-0.853-2.338l51.633-110.727
						c0.411-0.882,1.46-1.261,2.339-0.851l56.343,26.136c0.878,0.41,1.261,1.46,0.85,2.338l-1.296,135
						c-0.41,0.883-1.459,1.262-2.339,0.852L345.031,258.442z"/>
					<path fill="#EFEFEF" d="M197.458,514.924c-0.408,0.881-1.455,1.264-2.336,0.85L84.394,464.143
						c-0.88-0.41-1.262-1.457-0.853-2.336l114.233-244.973c0.41-0.882,1.457-1.261,2.339-0.851l110.728,51.633
						c0.879,0.412,1.261,1.456,0.85,2.337L197.458,514.924z"/>
					<path fill="#EFEFEF" d="M475.523,318.214c-0.88-0.41-1.263-1.456-0.853-2.338l0.936-134.025
						c0.411-0.882,1.46-1.261,2.339-0.851l165.178,77.758c0.878,0.41,1.261,1.46,0.85,2.338L592.34,371.824
						c-0.41,0.883-1.459,1.262-2.339,0.852L475.523,318.214z"/>
				</g>
				<g>
					<path fill="#EFEFEF" d="M687.22,581.494c-0.409,0.879-1.455,1.262-2.338,0.852l-136.243-63.531
						c-0.881-0.41-1.262-1.459-0.851-2.34l51.633-110.729c0.41-0.879,1.457-1.26,2.338-0.85l158.572,73.943
						c0.881,0.41,1.262,1.457,0.851,2.338L687.22,581.494z"/>
					<path fill="#EFEFEF" d="M599.477,703.041c-0.411,0.881-1.457,1.262-2.339,0.852L486.41,652.26
						c-0.879-0.41-1.26-1.459-0.849-2.338l51.632-110.729c0.411-0.881,1.459-1.262,2.338-0.852l131.461,61.301
						c0.882,0.41,1.262,1.457,0.85,2.338L599.477,703.041z"/>
					<path fill="#EFEFEF" d="M1332.641,882.457c-0.41,0.881-1.457,1.264-2.337,0.852l-110.728-51.631
						c-0.88-0.41-1.264-1.459-0.854-2.34l51.634-110.729c0.411-0.879,1.459-1.262,2.339-0.85l110.728,51.633
						c0.881,0.41,1.262,1.457,0.851,2.338L1332.641,882.457z"/>
					<path fill="#EFEFEF" d="M1270.414,1015.904c-0.409,0.879-1.457,1.262-2.338,0.85l-110.729-51.631
						c-0.879-0.412-1.262-1.459-0.85-2.34l51.632-110.727c0.41-0.883,1.459-1.264,2.339-0.852l110.729,51.633
						c0.88,0.41,1.26,1.455,0.85,2.338L1270.414,1015.904z"/>
					<path fill="#EFEFEF" d="M1466.021,944.656c-0.412,0.879-1.458,1.262-2.338,0.85l-110.727-51.631
						c-0.881-0.412-1.262-1.461-0.852-2.34l51.634-110.727c0.41-0.883,1.458-1.264,2.339-0.854l110.725,51.633
						c0.883,0.412,1.262,1.457,0.852,2.338L1466.021,944.656z"/>
					<path fill="#EFEFEF" d="M724.876,435.252c-0.411,0.879-1.456,1.262-2.339,0.852l-110.727-51.635
						c-0.881-0.41-1.262-1.457-0.851-2.338l51.634-110.727c0.409-0.883,1.457-1.262,2.338-0.852l110.728,51.631
						c0.881,0.412,1.261,1.459,0.849,2.34L724.876,435.252z"/>
					<path fill="#EFEFEF" d="M858.256,497.447c-0.409,0.881-1.456,1.264-2.338,0.852l-110.726-51.633
						c-0.882-0.41-1.262-1.459-0.852-2.338l51.634-110.727c0.412-0.881,1.457-1.264,2.338-0.854l110.727,51.633
						c0.881,0.41,1.263,1.457,0.851,2.338L858.256,497.447z"/>
					<path fill="#EFEFEF" d="M1126.703,622.627c-0.409,0.879-1.458,1.262-2.339,0.85l-110.728-51.633
						c-0.879-0.41-1.261-1.457-0.851-2.338l51.633-110.727c0.41-0.881,1.459-1.264,2.339-0.854l110.728,51.635
						c0.881,0.408,1.261,1.457,0.851,2.338L1126.703,622.627z"/>
					<path fill="#EFEFEF" d="M1260.083,684.822c-0.409,0.879-1.458,1.262-2.339,0.852l-110.725-51.631
						c-0.882-0.412-1.261-1.461-0.852-2.342l51.633-110.727c0.409-0.881,1.457-1.262,2.338-0.852l110.727,51.633
						c0.881,0.412,1.262,1.457,0.851,2.338L1260.083,684.822z"/>
					<path fill="#EFEFEF" d="M1342.928,1208.627c-0.888,1.904-2.32,3.117-3.203,2.705l-110.727-51.633
						c-0.881-0.412-0.873-2.287,0.015-4.191l111.636-239.402c0.887-1.904,2.321-3.115,3.202-2.705l110.726,51.635
						c0.881,0.408,0.876,2.285-0.014,4.189L1342.928,1208.627z"/>
					<path fill="#EFEFEF" d="M1000.206,889.904c-0.41,0.881-1.457,1.262-2.338,0.85l-242.58-113.113
						c-0.88-0.412-1.262-1.459-0.851-2.34l113.117-242.578c0.41-0.883,1.458-1.262,2.338-0.852l242.579,113.117
						c0.883,0.41,1.262,1.457,0.852,2.338L1000.206,889.904z"/>
					<path fill="#EFEFEF" d="M1073.385,1085.195c-0.409,0.879-3.127,0.482-6.072-0.893l-370.02-172.541
						c-2.942-1.373-4.995-3.199-4.586-4.08l51.634-110.73c0.412-0.879,3.131-0.482,6.073,0.893l370.021,172.541
						c2.944,1.375,4.994,3.201,4.586,4.082L1073.385,1085.195z"/>
					<path fill="#EFEFEF" d="M940.003,1022.996c-0.409,0.883-1.456,1.264-2.338,0.852l-110.726-51.629
						c-0.882-0.414-1.261-1.461-0.852-2.342l51.635-110.729c0.41-0.881,1.457-1.262,2.338-0.85l110.727,51.631
						c0.881,0.412,1.261,1.459,0.85,2.338L940.003,1022.996z"/>
					<path fill="#EFEFEF" d="M1073.385,1085.195c-0.409,0.879-1.456,1.262-2.337,0.85l-110.729-51.633
						c-0.878-0.41-1.261-1.459-0.851-2.338l51.634-110.729c0.41-0.881,1.458-1.262,2.338-0.852l110.728,51.633
						c0.881,0.412,1.261,1.459,0.853,2.34L1073.385,1085.195z"/>
					<path fill="#EFEFEF" d="M1206.765,1147.391c-0.409,0.881-1.456,1.262-2.337,0.852l-110.727-51.633
						c-0.881-0.412-1.261-1.459-0.852-2.338l51.637-110.727c0.407-0.883,1.455-1.266,2.337-0.854l110.725,51.633
						c0.882,0.41,1.263,1.459,0.854,2.34L1206.765,1147.391z"/>
					<path fill="#EFEFEF" d="M733.35,766.438c-0.409,0.879-1.456,1.264-2.338,0.852l-110.726-51.631
						c-0.882-0.41-1.262-1.459-0.853-2.34l162.077-222.66c0.409-0.881,1.457-1.262,2.339-0.852l62.882,29.322
						c0.882,0.41,1.261,1.457,0.851,2.338L733.35,766.438z"/>
					<path fill="#EFEFEF" d="M993.321,560.43c-0.411,0.879-1.458,1.262-2.338,0.85l-110.728-51.631
						c-0.881-0.41-1.264-1.461-0.851-2.34l114.23-244.971c0.41-0.881,1.459-1.262,2.338-0.852l110.729,51.633
						c0.88,0.41,1.261,1.457,0.851,2.338L993.321,560.43z"/>
					<path fill="#EFEFEF" d="M424.683,784.641c-0.88-0.414-1.262-1.459-0.852-2.342l51.631-110.725
						c0.412-0.881,1.46-1.262,2.339-0.852l244.972,114.234c0.879,0.408,1.261,1.457,0.851,2.336l-51.632,110.729
						c-0.411,0.881-1.459,1.26-2.338,0.852L424.683,784.641z"/>
					<path fill="#EFEFEF" d="M1282.316,697.127c-0.88-0.408-1.263-1.455-0.853-2.336l51.634-110.727
						c0.409-0.883,1.458-1.262,2.338-0.852l244.972,114.232c0.881,0.41,1.261,1.459,0.851,2.34l-51.632,110.727
						c-0.411,0.881-1.46,1.26-2.339,0.85L1282.316,697.127z"/>
					<path fill="#EFEFEF" d="M1134.742,953.611c-0.408,0.879-1.455,1.262-2.337,0.85l-110.727-51.633
						c-0.88-0.41-1.261-1.457-0.853-2.336L1135.06,655.52c0.411-0.881,1.456-1.26,2.34-0.85l110.727,51.633
						c0.881,0.41,1.261,1.457,0.851,2.336L1134.742,953.611z"/>
				</g>
				<g>
					<path fill="#EFEFEF" d="M401.985-203.931c-0.41,0.88-1.457,1.263-2.338,0.852L263.403-266.61
						c-0.88-0.411-1.262-1.459-0.852-2.339l51.634-110.728c0.411-0.88,1.458-1.261,2.338-0.851l158.571,73.942
						c0.882,0.412,1.261,1.458,0.851,2.339L401.985-203.931z"/>
					<path fill="#EFEFEF" d="M314.241-82.384c-0.41,0.881-1.457,1.264-2.339,0.854l-110.726-51.633
						c-0.881-0.411-1.262-1.459-0.851-2.339l51.632-110.729c0.411-0.88,1.458-1.26,2.34-0.851l131.458,61.301
						c0.881,0.411,1.262,1.458,0.851,2.339L314.241-82.384z"/>
					<path fill="#EFEFEF" d="M1047.405,97.034c-0.41,0.879-1.456,1.264-2.338,0.851L934.34,46.252
						c-0.879-0.409-1.261-1.457-0.851-2.338l51.634-110.729c0.41-0.88,1.456-1.261,2.337-0.851l110.727,51.633
						c0.882,0.411,1.264,1.457,0.853,2.338L1047.405,97.034z"/>
					<path fill="#EFEFEF" d="M985.179,230.481c-0.41,0.879-1.456,1.262-2.338,0.85l-110.727-51.633
						c-0.882-0.411-1.263-1.458-0.852-2.338l51.633-110.729c0.411-0.88,1.457-1.262,2.339-0.852l110.728,51.633
						c0.881,0.411,1.262,1.457,0.85,2.34L985.179,230.481z"/>
					<path fill="#EFEFEF" d="M1180.787,159.231c-0.412,0.88-1.457,1.263-2.34,0.85l-110.727-51.631
						c-0.881-0.411-1.261-1.459-0.851-2.339l51.634-110.727c0.411-0.881,1.457-1.263,2.339-0.853l110.726,51.633
						c0.883,0.411,1.262,1.457,0.851,2.338L1180.787,159.231z"/>
					<path fill="#EFEFEF" d="M439.642-350.173c-0.41,0.88-1.458,1.263-2.34,0.851l-110.725-51.632
						c-0.882-0.411-1.262-1.458-0.852-2.339l51.633-110.728c0.411-0.881,1.458-1.261,2.339-0.85l110.726,51.632
						c0.882,0.411,1.262,1.458,0.852,2.339L439.642-350.173z"/>
					<path fill="#EFEFEF" d="M573.021-287.977c-0.409,0.88-1.457,1.263-2.338,0.851l-110.726-51.632
						c-0.881-0.411-1.262-1.458-0.852-2.338l51.634-110.728c0.41-0.881,1.455-1.263,2.336-0.852l110.727,51.632
						c0.881,0.412,1.264,1.458,0.851,2.339L573.021-287.977z"/>
					<path fill="#EFEFEF" d="M841.468-162.798c-0.41,0.879-1.456,1.262-2.34,0.85L728.4-213.58
						c-0.879-0.411-1.261-1.458-0.849-2.338l51.632-110.729c0.411-0.88,1.458-1.262,2.339-0.851l110.727,51.632
						c0.883,0.411,1.263,1.458,0.852,2.339L841.468-162.798z"/>
					<path fill="#EFEFEF" d="M974.848-100.603c-0.41,0.879-1.456,1.263-2.34,0.853l-110.724-51.633
						c-0.883-0.412-1.262-1.459-0.852-2.339l51.633-110.728c0.412-0.881,1.456-1.262,2.34-0.851l110.724,51.632
						c0.884,0.412,1.263,1.458,0.852,2.339L974.848-100.603z"/>
					<path fill="#EFEFEF" d="M1057.692,423.203c-0.886,1.904-2.321,3.115-3.202,2.705l-110.726-51.633
						c-0.881-0.412-0.875-2.287,0.015-4.191l111.634-239.402c0.889-1.904,2.322-3.115,3.203-2.705l110.727,51.633
						c0.881,0.411,0.874,2.288-0.015,4.19L1057.692,423.203z"/>
					<path fill="#EFEFEF" d="M714.972,104.48c-0.412,0.881-1.457,1.263-2.339,0.851L470.053-7.785
						c-0.88-0.411-1.262-1.457-0.85-2.339l113.115-242.579c0.411-0.88,1.459-1.261,2.339-0.85l242.58,113.117
						c0.881,0.411,1.261,1.457,0.852,2.337L714.972,104.48z"/>
					<path fill="#EFEFEF" d="M788.15,299.77c-0.41,0.883-3.127,0.484-6.072-0.891L412.06,126.337c-2.944-1.373-4.998-3.2-4.587-4.08
						l51.633-110.729c0.411-0.879,3.129-0.483,6.074,0.89l370.019,172.542c2.944,1.375,4.996,3.201,4.586,4.083L788.15,299.77z"/>
					<path fill="#EFEFEF" d="M654.77,237.573c-0.411,0.881-1.459,1.264-2.34,0.851l-110.725-51.632
						c-0.883-0.411-1.262-1.459-0.851-2.34l51.634-110.728c0.41-0.879,1.456-1.261,2.338-0.851l110.726,51.631
						c0.881,0.412,1.262,1.458,0.851,2.339L654.77,237.573z"/>
					<path fill="#EFEFEF" d="M788.15,299.77c-0.41,0.883-1.457,1.264-2.337,0.852l-110.729-51.632
						c-0.879-0.41-1.261-1.457-0.85-2.338l51.632-110.73c0.411-0.88,1.459-1.261,2.34-0.85l110.728,51.632
						c0.882,0.411,1.262,1.459,0.852,2.34L788.15,299.77z"/>
					<path fill="#EFEFEF" d="M921.532,361.967c-0.412,0.881-1.459,1.262-2.339,0.852l-110.727-51.633
						c-0.882-0.412-1.262-1.459-0.852-2.338l51.635-110.729c0.409-0.881,1.455-1.264,2.339-0.853L972.314,248.9
						c0.881,0.41,1.262,1.459,0.852,2.34L921.532,361.967z"/>
					<path fill="#EFEFEF" d="M448.115-18.986c-0.41,0.88-1.457,1.263-2.337,0.851L335.05-69.766
						c-0.881-0.411-1.261-1.459-0.851-2.34l162.076-222.66c0.411-0.881,1.459-1.263,2.339-0.851l62.882,29.322
						c0.881,0.411,1.261,1.458,0.852,2.338L448.115-18.986z"/>
					<path fill="#EFEFEF" d="M708.088-224.995c-0.413,0.879-1.46,1.262-2.341,0.851l-110.727-51.632
						c-0.88-0.411-1.262-1.459-0.851-2.339L708.4-523.086c0.411-0.882,1.458-1.262,2.339-0.851l110.729,51.632
						c0.881,0.411,1.261,1.457,0.849,2.338L708.088-224.995z"/>
					<path fill="#EFEFEF" d="M139.447-0.786c-0.88-0.411-1.263-1.458-0.851-2.339l51.632-110.726
						c0.412-0.881,1.458-1.261,2.339-0.851L437.539-0.468c0.88,0.409,1.262,1.458,0.852,2.337l-51.634,110.727
						c-0.412,0.882-1.459,1.262-2.339,0.853L139.447-0.786z"/>
					<path fill="#EFEFEF" d="M997.082-88.297c-0.88-0.409-1.265-1.455-0.854-2.336l51.633-110.726
						c0.412-0.882,1.46-1.261,2.34-0.852l244.971,114.232c0.881,0.411,1.261,1.459,0.852,2.339L1244.39,25.087
						c-0.41,0.881-1.46,1.261-2.338,0.851L997.082-88.297z"/>
					<path fill="#EFEFEF" d="M849.509,168.187c-0.409,0.88-1.455,1.263-2.337,0.85l-110.727-51.632
						c-0.881-0.409-1.263-1.457-0.854-2.337l114.234-244.971c0.409-0.882,1.456-1.261,2.338-0.851l110.727,51.633
						c0.881,0.411,1.261,1.458,0.852,2.337L849.509,168.187z"/>
				</g>
			</g>
		</g>
	</g>
</g>
</svg>
