<?xml version="1.0" encoding="utf-8"?>
<!-- Generator: Adobe Illustrator 16.0.0, SVG Export Plug-In . SVG Version: 6.00 Build 0)  -->
<!DOCTYPE svg PUBLIC "-//W3C//DTD SVG 1.1//EN" "http://www.w3.org/Graphics/SVG/1.1/DTD/svg11.dtd">
<svg version="1.1" id="Capa_1" xmlns="http://www.w3.org/2000/svg" xmlns:xlink="http://www.w3.org/1999/xlink" x="0px" y="0px"
	 width="250px" height="150px" viewBox="0 0 250 150" enable-background="new 0 0 250 150" xml:space="preserve">
<g>
	<g id="t_1">
		<path fill="#E0E0E0" d="M120.997,85.046c-1.441,0-2.372-0.553-2.914-1.049c-1.433-1.303-1.496-3.279-1.498-3.5l-0.001-0.107
			l3.25-19.702c0.11-0.66,0.737-1.109,1.397-1.001c0.663,0.108,1.11,0.733,1.002,1.397l-3.212,19.469
			c0.027,0.367,0.19,1.191,0.708,1.654c0.337,0.303,0.809,0.436,1.438,0.402c1.504-0.471,2.306-1.248,3.252-4.484
			c0.188-0.646,0.867-1.014,1.507-0.826c0.646,0.189,1.016,0.865,0.826,1.508c-1.122,3.838-2.389,5.398-5.021,6.174l-0.243,0.045
			C121.316,85.04,121.153,85.046,120.997,85.046z"/>
	</g>
	<g id="t_2">
		<path fill="#E0E0E0" d="M136.737,80.931c-1.439,0-2.369-0.555-2.913-1.049c-1.433-1.305-1.496-3.282-1.497-3.503l-0.001-0.105
			l3.251-19.701c0.108-0.662,0.734-1.113,1.396-1.002c0.662,0.109,1.111,0.735,1.003,1.397l-3.216,19.467
			c0.03,0.369,0.193,1.194,0.708,1.655c0.339,0.305,0.809,0.436,1.438,0.404c1.506-0.469,2.308-1.246,3.253-4.485
			c0.188-0.645,0.866-1.014,1.507-0.826c0.646,0.188,1.015,0.863,0.826,1.507c-1.121,3.841-2.39,5.397-5.022,6.173l-0.241,0.045
			C137.061,80.923,136.896,80.931,136.737,80.931z"/>
	</g>
	<g id="i_1">
		<path fill="#E0E0E0" d="M134.642,76.807c-1.125,3.843-2.396,5.399-5.026,6.177l-0.242,0.043c-0.171,0.014-0.328,0.02-0.486,0.02
			c-1.441,0-2.371-0.555-2.919-1.047c-1.428-1.307-1.494-3.281-1.494-3.502V78.39l0.783-4.753c0.426,0.333,0.961,0.528,1.545,0.528
			c0.297,0,0.59-0.055,0.856-0.152l-0.747,4.542c0.024,0.371,0.188,1.191,0.704,1.652c0.341,0.305,0.81,0.438,1.439,0.408
			c1.501-0.471,2.305-1.254,3.253-4.489c0.188-0.643,0.857-1.014,1.507-0.824C134.459,75.488,134.824,76.164,134.642,76.807z"/>
	</g>
	<g id="P_ligne">
		<path fill="#E0E0E0" d="M94.701,70.667c-0.441,0-0.859-0.258-1.045-0.688c-0.247-0.575,0.021-1.243,0.596-1.489
			c4.241-1.813,7.75-3.193,9.465-3.854c12.064-4.651,19.241-9.89,20.754-15.144c0.735-2.552,0.128-5.082-1.854-7.734
			c-2.47-3.305-7.129-4.583-13.117-3.596c-11.487,1.892-26.484,12.181-30.498,24.482c-0.195,0.595-0.833,0.921-1.432,0.728
			c-0.597-0.194-0.921-0.836-0.727-1.431c4.41-13.513,20.193-24.027,32.287-26.018c6.865-1.131,12.3,0.459,15.303,4.476
			c2.404,3.217,3.151,6.488,2.219,9.723c-2.169,7.535-13.227,13.203-22.119,16.631c-1.699,0.656-5.183,2.023-9.388,3.824
			C95.001,70.638,94.849,70.667,94.701,70.667z"/>
	</g>
	<g id="T_barre">
		<path fill="#E0E0E0" d="M115.184,71.599c-0.203,0-0.408-0.051-0.599-0.157c-0.585-0.33-0.789-1.078-0.459-1.662
			c1.005-1.787,5.395-3.146,14.428-5.811c11.157-3.289,26.435-7.792,28.5-13.281c0.236-0.629,0.939-0.945,1.566-0.709
			c0.627,0.237,0.945,0.938,0.709,1.566c-2.492,6.623-17.792,11.133-30.088,14.756c-5.458,1.609-12.252,3.611-13.004,4.682
			C116.014,71.379,115.606,71.599,115.184,71.599z"/>
	</g>
	<g id="e_1">
		<path fill="#E0E0E0" d="M118.302,78.942c-0.577-0.246-1.131-0.014-1.363,0.529l-0.444,0.965l-0.434,0.844
			c-0.137,0.264-0.286,0.518-0.453,0.768c-0.271,0.426-0.56,0.84-0.863,1.236c-0.296,0.387-0.617,0.754-0.908,1.047
			c-0.26,0.213-0.542,0.416-0.838,0.604c-0.242,0.152-0.489,0.242-0.756,0.271l-0.084,0.016c-0.058,0.014-0.113,0.021-0.171,0.021
			c-0.119,0-0.25-0.031-0.392-0.092c-0.091-0.072-0.162-0.16-0.217-0.268c-0.092-0.178-0.168-0.346-0.234-0.51
			c-0.116-0.465-0.17-0.969-0.161-1.502l0.393-0.217c0.122-0.078,0.246-0.152,0.37-0.221c0.153-0.084,0.304-0.172,0.442-0.264
			c0.445-0.277,0.878-0.576,1.284-0.885c0.422-0.318,0.825-0.688,1.214-1.109c0.213-0.248,0.429-0.529,0.643-0.836
			c0.229-0.33,0.415-0.686,0.548-1.055c0.132-0.367,0.214-0.746,0.24-1.127c0.03-0.446-0.082-0.886-0.345-1.335
			c-0.369-0.568-0.914-0.887-1.575-0.92c-0.568-0.029-1.098,0.068-1.589,0.293c-0.446,0.211-0.846,0.504-1.185,0.869
			c-0.307,0.334-0.589,0.691-0.831,1.067c-0.584,0.877-1.023,1.855-1.31,2.904c-0.285,1.041-0.417,2.102-0.395,3.16
			c0.017,0.498,0.079,1.016,0.187,1.539c0.12,0.584,0.368,1.105,0.733,1.549c0.341,0.41,0.748,0.701,1.212,0.867
			c0.321,0.113,0.662,0.174,1.012,0.174c0.14,0,0.283-0.008,0.429-0.027c0.966-0.131,1.831-0.551,2.566-1.254
			c0.669-0.639,1.252-1.303,1.754-2c0.229-0.355,0.443-0.701,0.641-1.035l0.608-1.033l0.642-1.258
			c0.079-0.176,0.151-0.379,0.215-0.609C119.016,79.632,118.803,79.187,118.302,78.942z M113.975,76.964
			c0.018,0,0.034,0,0.053,0.002c0.001,0.006,0.002,0.012,0.004,0.021c0.015,0.266-0.075,0.564-0.276,0.904
			c-0.353,0.629-0.847,1.188-1.47,1.656c-0.266,0.199-0.533,0.391-0.803,0.57c0.169-0.531,0.375-1.031,0.615-1.494
			c0.174-0.326,0.396-0.652,0.661-0.973c0.224-0.271,0.486-0.465,0.831-0.602C113.715,76.993,113.841,76.964,113.975,76.964z"/>
	</g>
	<g id="e_2">
		<path fill="#E0E0E0" d="M149.713,70.813c-0.575-0.248-1.132-0.014-1.367,0.532l-0.442,0.963l-0.434,0.843
			c-0.139,0.266-0.289,0.52-0.454,0.768c-0.265,0.42-0.558,0.833-0.86,1.234c-0.299,0.389-0.62,0.756-0.909,1.049
			c-0.263,0.215-0.545,0.418-0.84,0.604c-0.24,0.153-0.487,0.241-0.754,0.271l-0.086,0.016c-0.057,0.014-0.111,0.021-0.17,0.021
			c-0.119,0-0.25-0.031-0.392-0.09c-0.092-0.073-0.163-0.161-0.217-0.267c-0.091-0.18-0.169-0.348-0.234-0.512
			c-0.115-0.463-0.171-0.969-0.163-1.502l0.395-0.215c0.123-0.08,0.246-0.154,0.369-0.22c0.152-0.084,0.306-0.174,0.443-0.266
			c0.447-0.279,0.88-0.577,1.284-0.885c0.422-0.318,0.825-0.687,1.215-1.111c0.216-0.25,0.432-0.531,0.641-0.834
			c0.23-0.329,0.417-0.684,0.549-1.055c0.134-0.371,0.214-0.748,0.24-1.127c0.029-0.443-0.081-0.885-0.346-1.334
			c-0.367-0.568-0.913-0.886-1.575-0.922c-0.566-0.027-1.098,0.07-1.59,0.295c-0.444,0.209-0.843,0.502-1.182,0.869
			c-0.31,0.333-0.59,0.693-0.833,1.066c-0.583,0.877-1.022,1.854-1.31,2.904c-0.283,1.043-0.417,2.104-0.395,3.16
			c0.017,0.5,0.078,1.018,0.188,1.537c0.118,0.587,0.364,1.106,0.733,1.55c0.339,0.412,0.748,0.705,1.21,0.871
			c0.323,0.113,0.663,0.174,1.014,0.174c0.14,0,0.282-0.012,0.429-0.029c0.968-0.129,1.831-0.549,2.565-1.254
			c0.671-0.639,1.255-1.304,1.754-1.999c0.23-0.355,0.444-0.701,0.642-1.035l0.4-0.681l0.851-1.61
			c0.079-0.177,0.15-0.382,0.212-0.608C150.425,71.5,150.212,71.058,149.713,70.813z M145.384,68.834c0.018,0,0.034,0,0.054,0
			c0.001,0.007,0.002,0.014,0.004,0.021c0.015,0.266-0.075,0.566-0.275,0.905c-0.354,0.631-0.849,1.188-1.472,1.655
			c-0.266,0.201-0.531,0.391-0.803,0.572c0.171-0.531,0.374-1.031,0.615-1.494c0.174-0.328,0.396-0.655,0.662-0.977
			c0.225-0.271,0.484-0.462,0.831-0.6C145.124,68.864,145.25,68.834,145.384,68.834z"/>
	</g>
	<g id="_p_barre">
		<path fill="#E0E0E0" d="M101.175,89.179c-0.065,0-0.134-0.004-0.202-0.016c-0.661-0.111-1.107-0.738-0.998-1.4l5.83-34.905
			c0.11-0.662,0.735-1.109,1.398-0.998c0.663,0.109,1.11,0.736,1,1.398l-5.83,34.907C102.273,88.757,101.758,89.179,101.175,89.179z
			"/>
	</g>
	<g id="u1">
		<path fill="#E0E0E0" d="M109.13,108.306c-1.484,0-2.443-0.57-3.004-1.078c-1.481-1.346-1.551-3.393-1.555-3.621l-0.001-0.105
			l1.243-7.598c0.108-0.664,0.727-1.113,1.396-1.004c0.664,0.107,1.112,0.732,1.003,1.396l-1.206,7.367
			c0.031,0.393,0.207,1.277,0.764,1.773c0.366,0.328,0.875,0.471,1.553,0.434c1.604-0.502,2.556-1.391,3.535-4.762
			c0.188-0.646,0.86-1.016,1.508-0.828c0.645,0.188,1.015,0.861,0.828,1.508c-1.148,3.941-2.535,5.633-5.306,6.451l-0.241,0.047
			C109.468,108.3,109.296,108.306,109.13,108.306z"/>
	</g>
	<g id="u_2">
		<path fill="#E0E0E0" d="M117.37,106.161c-1.487,0-2.446-0.57-3.005-1.078c-1.483-1.344-1.552-3.393-1.555-3.621l-0.002-0.104
			l1.184-7.232c0.108-0.662,0.729-1.113,1.396-1.004c0.664,0.109,1.112,0.732,1.003,1.395l-1.145,7.002
			c0.03,0.391,0.205,1.275,0.761,1.773c0.368,0.33,0.874,0.471,1.556,0.436c1.538-0.471,2.562-1.082,3.582-4.586
			c0.188-0.645,0.86-1.016,1.507-0.828c0.645,0.188,1.015,0.861,0.827,1.508c-1.102,3.791-2.501,5.432-5.352,6.275l-0.244,0.045
			C117.707,106.153,117.535,106.161,117.37,106.161z"/>
	</g>
	<g id="_x31__2">
		<path fill="#E0E0E0" d="M133.323,92.765l-1.721,4.99c-1.644,4.602-2.414,5.547-5.191,6.369l-0.243,0.049
			c-0.177,0.012-0.346,0.023-0.517,0.023c-1.482,0-2.443-0.57-3.002-1.08c-1.483-1.346-1.551-3.395-1.557-3.625v-0.104l0.869-5.301
			c0.444,0.375,1.016,0.604,1.643,0.604c0.256,0,0.504-0.037,0.74-0.109l-0.813,4.965c0.031,0.396,0.207,1.277,0.76,1.775
			c0.372,0.328,0.875,0.475,1.563,0.438c1.568-0.469,1.987-0.686,3.459-4.807l1.713-4.984c0.22-0.633,0.906-0.973,1.545-0.754
			C133.206,91.433,133.541,92.126,133.323,92.765z"/>
	</g>
	<g id="i_3">
		<path fill="#E0E0E0" d="M150.79,91.562c-0.03,0.156-0.213,0.967-0.34,1.336l-0.037,0.115c-1.198,3.574-3.118,5.73-5.414,6.084
			l-0.088,0.014c-0.175,0.012-0.351,0.018-0.517,0.018c-1.482,0-2.442-0.566-3.003-1.076c-1.481-1.35-1.55-3.393-1.556-3.623v-0.104
			l0.938-5.727c0.441,0.371,1.009,0.59,1.629,0.59c0.261,0,0.517-0.035,0.753-0.113l-0.881,5.408
			c0.028,0.396,0.206,1.275,0.759,1.775c0.383,0.34,0.919,0.479,1.63,0.432c1.319-0.23,2.57-1.848,3.447-4.449l0.048-0.146
			c0.048-0.15,0.184-0.717,0.262-1.063c0.146-0.656,0.802-1.068,1.453-0.924C150.524,90.255,150.938,90.905,150.79,91.562z"/>
	</g>
	<g id="e">
		<path fill="#E0E0E0" d="M173.932,83.419c-0.631-0.268-1.224-0.012-1.474,0.578l-0.531,1.154l-0.515,1.004
			c-0.165,0.32-0.345,0.627-0.545,0.924c-0.319,0.504-0.666,1.002-1.03,1.48c-0.349,0.457-0.727,0.891-1.125,1.289
			c-0.307,0.25-0.639,0.492-0.987,0.711c-0.3,0.193-0.609,0.305-0.945,0.342l-0.084,0.016c-0.234,0.061-0.48,0.029-0.759-0.092
			c-0.129-0.1-0.229-0.217-0.304-0.365c-0.111-0.217-0.208-0.426-0.29-0.625c-0.146-0.584-0.215-1.221-0.197-1.896l0.519-0.283
			c0.147-0.098,0.299-0.188,0.45-0.271c0.179-0.098,0.354-0.201,0.521-0.311c0.53-0.334,1.042-0.688,1.521-1.053
			c0.502-0.379,0.976-0.813,1.43-1.307c0.258-0.305,0.514-0.639,0.756-0.988c0.271-0.389,0.482-0.805,0.636-1.229
			c0.155-0.436,0.248-0.875,0.276-1.313c0.036-0.504-0.093-1.008-0.395-1.52c-0.42-0.645-1.037-1.004-1.786-1.041
			c-0.656-0.031-1.269,0.082-1.836,0.342c-0.515,0.24-0.978,0.58-1.374,1.01c-0.361,0.395-0.693,0.818-0.977,1.26
			c-0.688,1.033-1.206,2.188-1.542,3.43c-0.333,1.229-0.488,2.48-0.462,3.732c0.022,0.596,0.099,1.203,0.223,1.811
			c0.142,0.682,0.429,1.285,0.854,1.793c0.391,0.473,0.859,0.809,1.396,1c0.366,0.131,0.759,0.199,1.16,0.199
			c0.164,0,0.331-0.014,0.502-0.035c1.124-0.148,2.131-0.643,2.99-1.465c0.794-0.76,1.482-1.547,2.067-2.365
			c0.273-0.424,0.526-0.834,0.761-1.23l0.719-1.225l0.762-1.492c0.09-0.203,0.171-0.436,0.25-0.715
			C174.698,84.161,174.47,83.683,173.932,83.419z M168.819,80.847c0.048,0,0.095,0.002,0.139-0.006c0,0,0.03,0.039,0.042,0.141
			c0.02,0.34-0.093,0.721-0.341,1.143c-0.428,0.768-1.026,1.443-1.782,2.012c-0.405,0.309-0.814,0.596-1.229,0.867
			c0.218-0.756,0.496-1.463,0.833-2.109c0.215-0.404,0.482-0.805,0.797-1.184c0.282-0.344,0.607-0.582,1.033-0.75
			C168.473,80.884,168.639,80.847,168.819,80.847z"/>
	</g>
	<g id="n">
		<path fill="#E0E0E0" d="M164.498,86.591c-0.638-0.215-1.327,0.129-1.54,0.764c-1.42,4.229-2.868,5.246-3.256,5.449
			c-0.135-0.361-0.23-1.203,0.062-2.107c2.123-6.639,0.647-8.354-0.268-8.793c-0.887-0.545-1.85-0.635-2.79-0.26
			c-1.923,0.771-3.545,3.646-4.772,6.678l0.038-3.951c0-0.012-0.002-0.02-0.003-0.031c0-0.043-0.008-0.088-0.013-0.131
			c-0.004-0.037-0.007-0.072-0.015-0.109c-0.01-0.039-0.023-0.078-0.036-0.115c-0.012-0.037-0.023-0.074-0.037-0.109
			c-0.018-0.037-0.037-0.07-0.056-0.104c-0.021-0.033-0.036-0.066-0.06-0.102c-0.022-0.031-0.05-0.061-0.075-0.092
			c-0.023-0.029-0.048-0.059-0.073-0.084c-0.029-0.029-0.063-0.055-0.093-0.078c-0.029-0.025-0.059-0.049-0.09-0.068
			c-0.033-0.021-0.066-0.039-0.104-0.059c-0.035-0.02-0.07-0.037-0.107-0.053c-0.033-0.016-0.069-0.023-0.104-0.035
			c-0.043-0.014-0.086-0.025-0.13-0.035c-0.01,0-0.019-0.004-0.027-0.006c-0.031-0.006-0.061-0.004-0.09-0.006
			c-0.032-0.004-0.063-0.012-0.096-0.012c-0.004,0-0.007,0-0.012,0c-0.008,0-0.016,0.002-0.021,0.002
			c-0.045,0.002-0.087,0.01-0.129,0.014c-0.039,0.004-0.076,0.008-0.113,0.016s-0.072,0.021-0.108,0.035
			c-0.04,0.012-0.079,0.021-0.117,0.041c-0.03,0.012-0.06,0.029-0.09,0.047c-0.039,0.021-0.078,0.041-0.112,0.064
			c-0.029,0.02-0.054,0.043-0.079,0.064c-0.032,0.027-0.065,0.055-0.099,0.084c-0.023,0.027-0.046,0.057-0.067,0.084
			c-0.025,0.033-0.054,0.064-0.076,0.1c-0.021,0.029-0.036,0.063-0.053,0.096c-0.021,0.037-0.04,0.074-0.059,0.113
			c-0.013,0.031-0.021,0.066-0.031,0.102c-0.013,0.043-0.026,0.086-0.034,0.133c-0.004,0.008-0.008,0.018-0.011,0.027l-1.106,6.787
			c-0.11,0.664,0.34,1.287,1.003,1.396c0.004,0,0.011,0,0.015,0.002l-0.039,4.209c-0.006,0.621,0.456,1.146,1.072,1.219
			c0.049,0.008,0.097,0.008,0.144,0.008c0.56,0,1.055-0.381,1.185-0.939c1.133-4.865,3.677-12.1,5.784-12.941
			c0.191-0.078,0.37-0.092,0.646,0.092c0.001,0.002,0.002,0.002,0.002,0.002c0.027,0.053,0.074,0.166,0.114,0.369
			c0.119,0.635,0.158,2.203-0.926,5.588c-0.479,1.5-0.49,3.619,0.621,4.727c0.563,0.564,1.328,0.758,2.1,0.533
			c0.715-0.162,3.103-1.15,5.096-7.084C165.478,87.491,165.135,86.804,164.498,86.591z"/>
	</g>
	<g id="s">
		<path fill="#E0E0E0" d="M141.395,93.646c-0.646-0.188-1.318,0.184-1.507,0.826c-0.875,3.014-1.757,3.887-2.939,4.363
			c0.035-0.615-0.032-1.236-0.215-1.85c-0.19-0.637-0.414-1.244-0.659-1.785c-0.269-0.672-0.584-1.34-0.938-1.984
			c-0.325-0.59-0.618-1.211-0.864-1.82c-0.103-0.291-0.195-0.57-0.286-0.844c-0.069-0.205-0.104-0.416-0.106-0.65
			c-0.002-0.059,0.007-0.107,0.029-0.154c0.104-0.225,0.149-0.465,0.14-0.66c0.023-0.547-0.312-0.965-0.869-1.09
			c-0.589-0.135-1.082,0.164-1.264,0.758l-0.221,0.74c-0.298,0.961-0.578,1.914-0.831,2.828c-0.269,0.959-0.544,1.898-0.812,2.756
			c-0.04,0.104-0.087,0.215-0.144,0.34c-0.081,0.178-0.143,0.373-0.18,0.584c-0.041,0.248-0.026,0.482,0.043,0.695
			c0.059,0.184,0.229,0.508,0.719,0.646c0.272,0.092,0.566,0.063,0.822-0.09c0.242-0.143,0.407-0.357,0.469-0.609l0.354-1.014
			c0.24-0.699,0.471-1.418,0.688-2.146c0.068,0.133,0.136,0.264,0.209,0.393c0.324,0.592,0.627,1.195,0.896,1.795
			c0.203,0.451,0.388,0.912,0.549,1.373c0.151,0.432,0.249,0.879,0.283,1.313c0.018,0.309-0.016,0.598-0.097,0.861
			c-0.129,0.104-0.239,0.23-0.319,0.383c-0.028,0.053-0.048,0.107-0.066,0.162c-0.018,0.016-0.027,0.031-0.047,0.047
			c-0.065,0.047-0.125,0.078-0.198,0.102c-0.104,0.035-0.215,0.063-0.337,0.09c-0.145,0.035-0.293,0.07-0.45,0.109
			c-0.117,0.027-0.227,0.043-0.384,0.053c-0.493,0.059-1.002,0.033-1.59-0.09c-0.263-0.043-0.522-0.113-0.784-0.215
			c-0.14-0.053-0.278-0.109-0.424-0.176c-0.325-0.146-0.686-0.125-0.99,0.061c-0.28,0.141-0.469,0.379-0.533,0.686
			c-0.046,0.244-0.014,0.492,0.093,0.734l0.062,0.104c0.153,0.217,0.375,0.377,0.657,0.486c0.186,0.07,0.354,0.123,0.506,0.16
			c0.618,0.209,1.253,0.346,1.89,0.406c0.217,0.021,0.435,0.029,0.651,0.029c0.438,0,0.88-0.041,1.316-0.125
			s1.143-0.342,1.771-0.754c0.202,0.041,0.399,0.059,0.579,0.059c0.387,0,0.693-0.07,0.808-0.102
			c2.848-0.846,4.247-2.486,5.351-6.273C142.409,94.509,142.04,93.833,141.395,93.646z"/>
	</g>
	<g id="_x30__3">
		<g>
			<path fill="#E0E0E0" d="M143.752,86.632c0,0.34-0.127,0.65-0.341,0.881c-0.242,0.285-0.607,0.461-1.009,0.461
				c-0.682,0-1.252-0.51-1.338-1.164c-0.007-0.063-0.012-0.115-0.012-0.178c0-0.23,0.061-0.451,0.163-0.639
				c0-0.006,0.007-0.02,0.015-0.023c0.229-0.414,0.668-0.688,1.173-0.688c0.347,0,0.662,0.133,0.905,0.352
				C143.581,85.878,143.752,86.237,143.752,86.632z"/>
		</g>
	</g>
	<g id="_x30__2">
		<g>
			<path fill="#E0E0E0" d="M124.952,92.126c0,0.354-0.133,0.676-0.358,0.912c-0.244,0.268-0.602,0.438-0.989,0.438
				c-0.7,0-1.271-0.521-1.345-1.201c0-0.008,0-0.008,0-0.008c-0.006-0.049-0.006-0.092-0.006-0.141c0-0.199,0.042-0.387,0.121-0.559
				c0.213-0.469,0.681-0.789,1.229-0.789c0.54,0,1.009,0.32,1.228,0.783C124.909,91.731,124.952,91.927,124.952,92.126z"/>
		</g>
	</g>
	<g id="_x30__1">
		<g>
			<path fill="#E0E0E0" d="M128.15,71.599c0,0.269-0.08,0.511-0.213,0.724c-0.243,0.377-0.662,0.625-1.139,0.625
				c-0.594,0-1.1-0.389-1.28-0.924c-0.044-0.133-0.067-0.279-0.067-0.425c0-0.31,0.104-0.59,0.274-0.808
				c0.241-0.33,0.638-0.543,1.075-0.543c0.632,0,1.167,0.438,1.308,1.027C128.137,71.381,128.15,71.491,128.15,71.599z"/>
		</g>
	</g>
	<g id="c">
		<path fill="#E0E0E0" d="M89.931,113.429c-0.988,0-1.977-0.08-2.953-0.252c-5.883-1.023-9.92-5.162-11.366-11.65
			c-2.091-9.367,3.49-16.441,9.56-19.053c6.396-2.75,13.021-0.828,16.877,4.9c0.375,0.557,0.228,1.313-0.33,1.686
			c-0.558,0.377-1.312,0.23-1.687-0.328c-3.851-5.717-9.705-5.826-13.901-4.023c-5.176,2.227-9.935,8.273-8.146,16.289
			c1.561,7.006,5.979,9.188,9.409,9.787c6.654,1.16,14.171-2.59,16.759-6.678c0.357-0.566,1.108-0.734,1.677-0.379
			c0.567,0.361,0.736,1.111,0.377,1.68C103.532,109.63,96.743,113.429,89.931,113.429z"/>
	</g>
	<g id="m">
		<path fill="#E0E0E0" d="M145.686,44.495l-0.057-0.023c-0.414-0.152-0.817-0.023-1.034,0.311c-0.083,0.127-0.152,0.258-0.212,0.391
			l-0.35,0.792c-0.15,0.312-0.304,0.614-0.457,0.907c-0.155,0.293-0.318,0.59-0.474,0.861c-0.138,0.213-0.285,0.428-0.443,0.645
			c-0.021,0.029-0.045,0.059-0.066,0.086c0-0.025,0-0.049,0-0.073c0.02-0.394,0.058-0.774,0.113-1.14
			c0.058-0.393,0.117-0.793,0.177-1.209l0.143-1.207c0.061-0.502,0.025-0.994-0.1-1.461c-0.055-0.201-0.141-0.391-0.249-0.555
			c-0.129-0.197-0.303-0.359-0.56-0.503c-0.248-0.12-0.521-0.166-0.802-0.135c-0.224,0.023-0.432,0.073-0.633,0.151
			c-0.416,0.16-0.784,0.404-1.098,0.727c-0.272,0.283-0.521,0.589-0.729,0.899c-0.229,0.322-0.439,0.66-0.631,1.01
			c-0.05-0.143-0.106-0.283-0.174-0.42c-0.184-0.391-0.457-0.693-0.815-0.9c-0.398-0.229-0.803-0.289-1.359-0.104
			c-0.368,0.148-0.686,0.367-0.941,0.652c-0.219,0.239-0.412,0.492-0.576,0.75c-0.106,0.148-0.205,0.303-0.297,0.461
			c-0.007-0.006-0.01-0.012-0.014-0.018c-0.148-0.243-0.357-0.443-0.643-0.605c-0.463-0.242-0.939-0.242-1.354,0
			c-0.295,0.174-0.55,0.397-0.723,0.621c-0.296,0.314-0.544,0.666-0.738,1.045c-0.17,0.332-0.339,0.67-0.51,1.019l-0.59,1.248
			l-0.146,0.29c-0.174,0.301-0.169,0.646,0.013,0.945c0.189,0.317,0.512,0.481,0.919,0.426l0.072-0.016
			c0.305-0.082,0.463-0.26,0.547-0.402c0.042-0.074,0.078-0.154,0.108-0.237l0.818-1.675c0.107-0.188,0.206-0.371,0.293-0.553
			c0.077-0.155,0.161-0.315,0.23-0.438c0.084-0.123,0.169-0.241,0.257-0.356c0.012,0.162,0.018,0.313,0.016,0.459
			c0.011,0.283,0,0.565-0.024,0.84c-0.026,0.293-0.063,0.586-0.109,0.884c-0.056,0.392-0.12,0.78-0.195,1.168
			c-0.077,0.399-0.153,0.803-0.228,1.207l-0.146,0.772c-0.075,0.369,0.03,0.713,0.291,0.94l0.095,0.067
			c0.165,0.096,0.333,0.144,0.502,0.144c0.325,0,0.613-0.179,0.792-0.489l0.032-0.063c0.065-0.152,0.111-0.315,0.135-0.491
			l0.036-0.284l0.617-2.39c0.166-0.556,0.355-1.125,0.559-1.692c0.191-0.531,0.432-1.05,0.729-1.57
			c0.081-0.16,0.179-0.319,0.291-0.474c0.104-0.142,0.22-0.265,0.322-0.351c0.032-0.024,0.062-0.045,0.085-0.061
			c0.029,0.053,0.054,0.104,0.071,0.15c0.115,0.313,0.188,0.646,0.208,0.99c0.025,0.385,0.035,0.769,0.029,1.162
			c0.006,0.209,0.001,0.416-0.003,0.617c-0.008,0.202-0.02,0.402-0.037,0.61c-0.003,0.065-0.016,0.126-0.036,0.188
			c-0.037,0.115-0.067,0.227-0.106,0.365l-0.134,0.596c-0.08,0.312-0.125,0.621-0.134,0.916c-0.015,0.162-0.003,0.314,0.035,0.451
			c0.044,0.168,0.157,0.4,0.445,0.563c0.155,0.089,0.315,0.136,0.479,0.136c0.178,0,0.514-0.058,0.75-0.422
			c0.119-0.163,0.199-0.348,0.24-0.545c0.021-0.102,0.043-0.195,0.08-0.326c0.042-0.211,0.076-0.42,0.102-0.626
			c0.022-0.196,0.042-0.399,0.063-0.631c0.007-0.104,0.015-0.206,0.024-0.31c0.005-0.064,0.018-0.127,0.026-0.168l0.347-1.047
			c0.053-0.158,0.112-0.309,0.202-0.492c0.142-0.346,0.289-0.688,0.44-1.025c0.145-0.322,0.31-0.643,0.474-0.93
			c0.16-0.256,0.328-0.502,0.502-0.744c0.15-0.209,0.335-0.408,0.563-0.6c0.037-0.035,0.093-0.07,0.167-0.113
			c0.01-0.006,0.02-0.012,0.029-0.018l-0.002,0.367c-0.001,0.178-0.015,0.344-0.032,0.496c-0.025,0.186-0.051,0.375-0.072,0.563
			c-0.052,0.41-0.113,0.824-0.181,1.237c-0.074,0.448-0.127,0.897-0.156,1.328c-0.024,0.292-0.024,0.623-0.002,1.011
			c0.034,0.549,0.279,0.983,0.696,1.248c0.434,0.293,0.924,0.303,1.394,0.113c0.18-0.07,0.357-0.166,0.527-0.284
			c0.173-0.118,0.319-0.247,0.409-0.351c0.341-0.338,0.639-0.727,0.883-1.151c0.224-0.39,0.435-0.782,0.63-1.17
			c0.126-0.247,0.242-0.495,0.352-0.75c0.096-0.226,0.19-0.446,0.289-0.664c0.075-0.135,0.143-0.29,0.203-0.471
			C146.32,45.143,146.129,44.714,145.686,44.495z"/>
	</g>
	<g id="a">
		<path fill="#E0E0E0" d="M153.773,42.29c-0.405-0.093-0.786,0.068-1.018,0.475l-0.635,1.33c-0.203,0.424-0.428,0.853-0.69,1.31
			c-0.069,0.146-0.15,0.284-0.239,0.418l-0.308,0.457c-0.054,0.075-0.112,0.143-0.18,0.203c-0.064,0.059-0.138,0.108-0.229,0.16
			c-0.023-0.037-0.039-0.076-0.051-0.125c-0.034-0.15-0.051-0.288-0.06-0.449c-0.02-0.187-0.026-0.375-0.02-0.562
			c0.007-0.202,0.018-0.399,0.038-0.646c0-0.08,0.009-0.156,0.021-0.211c0.026-0.105,0.05-0.216,0.074-0.33
			c0.038-0.119,0.072-0.236,0.107-0.357c0.035-0.131,0.065-0.262,0.088-0.367c0.099-0.4,0.188-0.791,0.263-1.168
			s0.146-0.762,0.21-1.154l0.008-0.063c0.002-0.032,0.013-0.076,0.029-0.144c0.036-0.158,0.055-0.31,0.055-0.443
			c0.002-0.2-0.04-0.383-0.127-0.553c-0.139-0.26-0.402-0.419-0.688-0.437c-0.154-0.019-0.289-0.017-0.407,0
			c-0.056,0.007-0.12,0.014-0.246,0.024c-0.521,0.078-1.023,0.24-1.493,0.481c-0.452,0.231-0.873,0.514-1.246,0.835
			c-0.31,0.262-0.6,0.56-0.858,0.886c-0.247,0.309-0.476,0.631-0.674,0.949c-0.261,0.399-0.493,0.825-0.69,1.261
			c-0.203,0.453-0.354,0.932-0.438,1.394c-0.081,0.354-0.139,0.723-0.169,1.092c-0.034,0.399-0.009,0.795,0.081,1.211
			c0.093,0.341,0.242,0.66,0.446,0.951c0.241,0.341,0.569,0.58,0.977,0.709c0.211,0.067,0.426,0.103,0.641,0.103
			c0.271,0,0.542-0.055,0.809-0.162c0.407-0.162,0.767-0.375,1.098-0.658c0.289-0.276,0.551-0.592,0.779-0.944
			c0.248,0.371,0.636,0.606,1.108,0.674c0.548,0.099,1.031-0.019,1.449-0.334c0.331-0.251,0.613-0.543,0.822-0.853
			c0.289-0.391,0.545-0.809,0.763-1.24l0.613-1.217c0.085-0.174,0.169-0.354,0.251-0.536c0.073-0.16,0.155-0.319,0.247-0.476
			c0.035-0.062,0.066-0.127,0.099-0.201c0.061-0.131,0.088-0.28,0.086-0.444C154.462,42.715,154.195,42.388,153.773,42.29z
			 M148.938,42.354c-0.05,0.194-0.088,0.387-0.119,0.58c-0.027,0.18-0.055,0.368-0.071,0.527l-0.104,0.588
			c-0.01,0.081-0.022,0.164-0.036,0.236c-0.014,0.056-0.032,0.117-0.082,0.238c-0.107,0.331-0.227,0.664-0.356,1.002
			c-0.124,0.317-0.268,0.619-0.427,0.895c-0.135,0.236-0.288,0.461-0.45,0.669c-0.142,0.177-0.317,0.329-0.502,0.442
			c-0.104,0.06-0.222,0.113-0.35,0.162c-0.06,0.022-0.11,0.034-0.152,0.045c-0.049-0.051-0.096-0.109-0.125-0.158
			c-0.096-0.17-0.146-0.357-0.152-0.57c-0.01-0.273,0.005-0.529,0.036-0.758c0.06-0.391,0.162-0.773,0.309-1.141
			c0.151-0.377,0.336-0.744,0.557-1.102c0.174-0.305,0.367-0.6,0.575-0.876c0.194-0.265,0.43-0.519,0.692-0.751
			c0.26-0.229,0.555-0.431,0.877-0.598c0.012-0.006,0.022-0.012,0.033-0.018C149.039,41.959,148.989,42.153,148.938,42.354z"/>
		<g id="Calque_2">
		</g>
	</g>
</g>
</svg>
