<?xml version="1.0" encoding="utf-8"?>
<!-- Generator: Adobe Illustrator 14.0.0, SVG Export Plug-In . SVG Version: 6.00 Build 43363)  -->
<!DOCTYPE svg PUBLIC "-//W3C//DTD SVG 1.1//EN" "http://www.w3.org/Graphics/SVG/1.1/DTD/svg11.dtd">
<svg version="1.1" id="Capa_1" xmlns="http://www.w3.org/2000/svg" xmlns:xlink="http://www.w3.org/1999/xlink" x="0px" y="0px"
	 width="250px" height="150px" viewBox="0 0 250 150" enable-background="new 0 0 250 150" xml:space="preserve">
<g>
	<path fill="#E0E0E0" d="M145.529,58.272l-5.344,11.459l8.248,3.846c1.514-3.368,2.289-6.931,2.289-10.596
		c0-0.787-0.045-1.564-0.111-2.34L145.529,58.272z"/>
	<path fill="#E0E0E0" d="M134.037,38.699c-2.852-1.077-5.9-1.646-9.037-1.646c-0.98-0.001-1.951,0.074-2.912,0.187l-2.318,4.969
		l10.375,4.838L134.037,38.699z"/>
	
		<rect x="114.42" y="47.958" transform="matrix(-0.4225 0.9064 -0.9064 -0.4225 220.4091 -33.0737)" fill="#E0E0E0" width="12.643" height="11.447"/>
	<path fill="#E0E0E0" d="M148.369,52.183l-1.287,2.763l2.734,1.274C149.445,54.833,148.962,53.485,148.369,52.183z"/>
	<path fill="#E0E0E0" d="M143.751,53.392l2.399-5.146c-0.879-1.273-1.86-2.488-2.973-3.607c-1.748-1.759-3.703-3.229-5.809-4.396
		l-3.896,8.354L143.751,53.392z"/>
	<path fill="#E0E0E0" d="M111.322,60.326l-7.838,16.807c0.057,0.087,0.111,0.183,0.168,0.265l0.072,0.108l6.723,11.784l11.25-24.125
		L111.322,60.326z"/>
	
		<rect x="114.975" y="83.408" transform="matrix(0.9063 0.4226 -0.4226 0.9063 49.1331 -42.5966)" fill="#E0E0E0" width="11.34" height="12.23"/>
	
		<rect x="121.81" y="68.517" transform="matrix(-0.9063 -0.4227 0.4227 -0.9063 211.3596 196.6369)" fill="#E0E0E0" width="11.341" height="12.735"/>
	
		<rect x="128.722" y="53.738" transform="matrix(0.9063 0.4226 -0.4226 0.9063 37.9693 -51.1654)" fill="#E0E0E0" width="11.337" height="12.643"/>
	<path fill="#E0E0E0" d="M114.887,43.986l-4.676-2.181c-3.557,2.52-6.498,5.936-8.433,10.019l7.767,3.621L114.887,43.986z"/>
	<path fill="#E0E0E0" d="M117.602,38.166c-1.218,0.371-2.398,0.835-3.543,1.379l2.381,1.11L117.602,38.166z"/>
	<path fill="#E0E0E0" d="M121.793,109.177l1.617,2.836c0.463,0.813,1.193,0.934,1.589,0.934s1.126-0.122,1.588-0.932l4.019-7.041
		l-5.627-2.627L121.793,109.177z"/>
	<path fill="#E0E0E0" d="M100.445,55.255c-0.771,2.484-1.168,5.069-1.168,7.729c0,3.439,0.713,6.867,2.061,10.063l6.655-14.272
		L100.445,55.255z"/>
	<polygon fill="#E0E0E0" points="119.563,105.269 121.648,100.795 115.33,97.849 	"/>
	<path fill="#E0E0E0" d="M126.531,99.017l5.9,2.752l13.84-24.261l0.071-0.105c0.118-0.181,0.226-0.356,0.354-0.579l-8.064-3.761
		L126.531,99.017z"/>
</g>
</svg>
